<svg xmlns="http://www.w3.org/2000/svg" style="position: absolute;" width="1050" height="640"><g transform="translate(30 10)"><g /><g /><g /><g /><g /><g /><g /><g /><g /><g /><g /><g /><g /><g /><path class="highlight" d="M 0 550.598 C 5.96491 552.06 11.9298 553.521 17.8947 553.521 C 23.8596 553.521 29.8246 551.574 35.7895 551.574 C 41.7544 551.574 47.7193 554.77 53.6842 555.777 C 59.6491 556.784 65.614 557.617 71.5789 557.617 C 77.5439 557.617 83.5088 552.087 89.4737 549.851 C 95.4386 547.614 101.404 544.824 107.368 544.198 C 113.333 543.571 119.298 543.885 125.263 543.258 C 131.228 542.632 137.193 540.624 143.158 539.383 C 149.123 538.142 155.088 535.811 161.053 535.811 C 167.018 535.811 172.982 540.276 178.947 542.359 C 184.912 544.441 190.877 546.986 196.842 548.308 C 202.807 549.63 208.772 550.291 214.737 550.291 C 220.702 550.291 226.667 550.026 232.632 549.496 C 238.596 548.967 244.561 545.172 250.526 543.623 C 256.491 542.074 262.456 540.429 268.421 540.2 C 274.386 539.972 280.351 539.943 286.316 539.858 C 292.281 539.773 298.246 539.689 304.211 539.689 C 310.175 539.689 316.14 540.628 322.105 541.719 C 328.07 542.809 334.035 544.831 340 546.231 C 345.965 547.631 351.93 549.87 357.895 550.117 C 363.86 550.365 369.825 550.489 375.789 550.489 C 381.754 550.489 387.719 550.015 393.684 550.015 C 399.649 550.015 405.614 550.098 411.579 550.263 C 417.544 550.429 423.509 551.374 429.474 551.374 C 435.439 551.374 441.404 549.744 447.368 548.696 C 453.333 547.648 459.298 545.088 465.263 545.088 C 471.228 545.088 477.193 547.312 483.158 547.312 C 489.123 547.312 495.088 546.043 501.053 544.746 C 507.018 543.448 512.982 540.85 518.947 539.527 C 524.912 538.203 530.877 536.804 536.842 536.804 C 542.807 536.804 548.772 537.294 554.737 537.294 C 560.702 537.294 566.667 537.067 572.632 536.612 C 578.596 536.157 584.561 532.961 590.526 529.489 C 596.491 526.017 602.456 523.412 608.421 515.779 C 614.386 508.145 620.351 496.36 626.316 483.688 C 632.281 471.016 638.246 452.704 644.211 439.747 C 650.175 426.789 656.14 414.199 662.105 405.944 C 668.07 397.689 674.035 393.98 680 390.215 C 685.965 386.451 691.93 385.554 697.895 383.359 C 703.86 381.163 709.825 380.028 715.789 377.041 C 721.754 374.055 727.719 367.72 733.684 365.439 C 739.649 363.157 745.614 362.017 751.579 362.017 C 757.544 362.017 763.509 365.567 769.474 365.567 C 775.439 365.567 781.404 362.411 787.368 359.699 C 793.333 356.987 799.298 350.391 805.263 349.295 C 811.228 348.198 817.193 347.65 823.158 347.65 C 829.123 347.65 835.088 351.234 841.053 351.234 C 847.018 351.234 852.982 348.745 858.947 345.91 C 864.912 343.075 870.877 334.224 876.842 334.224 C 882.807 334.224 888.772 335.339 894.737 337.569 C 900.702 339.798 906.667 353.823 912.632 358.959 C 918.596 364.095 924.561 364.636 930.526 368.384 C 936.491 372.132 942.456 377.555 948.421 381.449 C 954.386 385.342 960.351 391.745 966.316 391.745 C 972.281 391.745 978.246 390.818 984.211 388.964 C 990.175 387.11 996.14 381.973 1002.11 379.367 C 1008.07 376.761 1014.04 375.046 1020 373.33 L 1020 401.07 C 1014.04 402.583 1008.07 404.096 1002.11 406.402 C 996.14 408.709 990.175 414.329 984.211 414.908 C 978.246 415.487 972.281 415.776 966.316 415.776 C 960.351 415.776 954.386 409.087 948.421 406.074 C 942.456 403.062 936.491 399.773 930.526 397.704 C 924.561 395.634 918.596 396.354 912.632 393.655 C 906.667 390.956 900.702 377.753 894.737 377.753 C 888.772 377.753 882.807 378.069 876.842 378.699 C 870.877 379.329 864.912 387.086 858.947 389.65 C 852.982 392.213 847.018 394.068 841.053 394.081 C 835.088 394.094 829.123 394.088 823.158 394.1 C 817.193 394.113 811.228 394.918 805.263 396.154 C 799.298 397.391 793.333 400.03 787.368 401.518 C 781.404 403.005 775.439 405.08 769.474 405.08 C 763.509 405.08 757.544 402.825 751.579 402.825 C 745.614 402.825 739.649 403.073 733.684 403.568 C 727.719 404.063 721.754 407.626 715.789 409.392 C 709.825 411.158 703.86 413.036 697.895 414.164 C 691.93 415.293 685.965 414.83 680 416.16 C 674.035 417.491 668.07 418.921 662.105 424.443 C 656.14 429.964 650.175 442.549 644.211 453.742 C 638.246 464.934 632.281 480.485 626.316 491.597 C 620.351 502.71 614.386 513.457 608.421 520.418 C 602.456 527.378 596.491 530.206 590.526 533.361 C 584.561 536.515 578.596 538.198 572.632 539.344 C 566.667 540.489 560.702 540.576 554.737 541.062 C 548.772 541.547 542.807 541.518 536.842 542.257 C 530.877 542.995 524.912 544.072 518.947 545.491 C 512.982 546.911 507.018 549.979 501.053 550.773 C 495.088 551.567 489.123 551.964 483.158 551.964 C 477.193 551.964 471.228 548.332 465.263 548.332 C 459.298 548.332 453.333 550.969 447.368 552.127 C 441.404 553.286 435.439 555.285 429.474 555.285 C 423.509 555.285 417.544 554.627 411.579 554.133 C 405.614 553.64 399.649 552.824 393.684 552.323 C 387.719 551.823 381.754 551.451 375.789 551.13 C 369.825 550.81 363.86 550.886 357.895 550.399 C 351.93 549.911 345.965 548.368 340 547.075 C 334.035 545.781 328.07 543.677 322.105 542.637 C 316.14 541.596 310.175 540.83 304.211 540.83 C 298.246 540.83 292.281 541.412 286.316 541.713 C 280.351 542.013 274.386 542.019 268.421 542.632 C 262.456 543.245 256.491 544.826 250.526 546.177 C 244.561 547.529 238.596 550.714 232.632 550.741 C 226.667 550.768 220.702 550.782 214.737 550.782 C 208.772 550.782 202.807 550.448 196.842 549.781 C 190.877 549.113 184.912 547.031 178.947 545.111 C 172.982 543.192 167.018 538.265 161.053 538.265 C 155.088 538.265 149.123 539.359 143.158 540.196 C 137.193 541.033 131.228 542.622 125.263 543.288 C 119.298 543.954 113.333 543.621 107.368 544.286 C 101.404 544.952 95.4386 547.762 89.4737 550.117 C 83.5088 552.471 77.5439 558.415 71.5789 558.415 C 65.614 558.415 59.6491 558.334 53.6842 558.171 C 47.7193 558.009 41.7544 554.809 35.7895 554.809 C 29.8246 554.809 23.8596 554.96 17.8947 554.96 C 11.9298 554.96 5.96491 552.779 0 550.598 Z" /><line class="year" style="display: block;" transform="translate(733.684)" y2="600" /><g class="group-labels" /><g class="group-labels" /><g class="group-labels" /><g class="group-labels" /><g class="group-labels" /><g class="group-labels"><text><textPath startOffset="773.763" href="#textpath-wfn-netherlands-eredivisie-af_other">Other African countries</textPath></text></g><g class="group-labels" /><g class="group-labels"><text><textPath startOffset="827.045" href="#textpath-wfn-netherlands-eredivisie-eu_other">Other European countries</textPath></text></g><g class="group-labels" /><g class="group-labels" /><g class="group-labels"><text><textPath startOffset="137.19" href="#textpath-wfn-netherlands-eredivisie-deu">Germany</textPath></text></g><g class="group-labels" /><g class="group-labels"><text><textPath startOffset="833.617" href="#textpath-wfn-netherlands-eredivisie-bel">Belgium</textPath></text></g><g class="group-labels"><text><textPath startOffset="395.425" href="#textpath-wfn-netherlands-eredivisie-nld">Netherlands</textPath></text></g><g class="tick" transform="translate(0)"><text transform="translate(0 615)">1960</text></g><g class="tick" transform="translate(89.4737)"><text transform="translate(0 615)">1965</text></g><g class="tick" transform="translate(178.947)"><text transform="translate(0 615)">1970</text></g><g class="tick" transform="translate(268.421)"><text transform="translate(0 615)">1975</text></g><g class="tick" transform="translate(357.895)"><text transform="translate(0 615)">1980</text></g><g class="tick" transform="translate(447.368)"><text transform="translate(0 615)">1985</text></g><g class="tick" transform="translate(536.842)"><text transform="translate(0 615)">1990</text></g><g class="tick" transform="translate(626.316)"><text transform="translate(0 615)">1995</text></g><g class="tick" transform="translate(715.789)"><text transform="translate(0 615)">2000</text></g><g class="tick" transform="translate(805.263)"><text transform="translate(0 615)">2005</text></g><g class="tick" transform="translate(894.737)"><text transform="translate(0 615)">2010</text></g><g class="tick" transform="translate(984.211)"><text transform="translate(0 615)">2015</text></g><g class="tick tick-y g-baseline" transform="translate(0 600)"><line class="zero" x2="1020" /><text transform="translate(-5 7)">0%</text></g><g class="tick tick-y" transform="translate(0 450)"><line x2="1020" /><text transform="translate(-5 7)">25%</text></g><g class="tick tick-y" transform="translate(0 300)"><line x2="1020" /><text transform="translate(-5 7)">50%</text></g><g class="tick tick-y" transform="translate(0 150)"><line x2="1020" /><text transform="translate(-5 7)">75%</text></g><g class="tick tick-y g-top" transform="translate(0)"><line x2="1020" /><text transform="translate(-5 7)">100%</text></g></g><defs><g class="textpaths"><g><path id="textpath-wfn-netherlands-eredivisie-n_am_other" style="fill: none; stroke: black;" d="M 0 600 C 5.96491 600 11.9298 600 17.8947 600 C 23.8596 600 29.8246 600 35.7895 600 C 41.7544 600 47.7193 600 53.6842 600 C 59.6491 600 65.614 600 71.5789 600 C 77.5439 600 83.5088 600 89.4737 600 C 95.4386 600 101.404 600 107.368 600 C 113.333 600 119.298 600.001 125.263 600 C 131.228 599.999 137.193 599.998 143.158 600 C 149.123 600.002 155.088 600.009 161.053 600 C 167.018 599.991 172.982 599.968 178.947 599.915 C 184.912 599.861 190.877 599.777 196.842 599.708 C 202.807 599.639 208.772 599.585 214.737 599.547 C 220.702 599.508 226.667 599.486 232.632 599.49 C 238.596 599.494 244.561 599.525 250.526 599.561 C 256.491 599.597 262.456 599.637 268.421 599.677 C 274.386 599.718 280.351 599.758 286.316 599.804 C 292.281 599.851 298.246 599.904 304.211 599.935 C 310.175 599.965 316.14 599.972 322.105 599.978 C 328.07 599.984 334.035 599.99 340 599.993 C 345.965 599.996 351.93 599.997 357.895 599.998 C 363.86 599.999 369.825 600 375.789 599.999 C 381.754 599.999 387.719 599.997 393.684 600 C 399.649 600.003 405.614 600.011 411.579 600 C 417.544 599.989 423.509 599.96 429.474 599.912 C 435.439 599.864 441.404 599.797 447.368 599.707 C 453.333 599.617 459.298 599.503 465.263 599.384 C 471.228 599.264 477.193 599.14 483.158 599.031 C 489.123 598.922 495.088 598.828 501.053 598.757 C 507.018 598.686 512.982 598.637 518.947 598.59 C 524.912 598.542 530.877 598.495 536.842 598.464 C 542.807 598.432 548.772 598.414 554.737 598.43 C 560.702 598.445 566.667 598.494 572.632 598.583 C 578.596 598.672 584.561 598.802 590.526 598.878 C 596.491 598.953 602.456 598.974 608.421 598.917 C 614.386 598.859 620.351 598.724 626.316 598.576 C 632.281 598.429 638.246 598.269 644.211 598.126 C 650.175 597.983 656.14 597.858 662.105 597.799 C 668.07 597.742 674.035 597.751 680 597.794 C 685.965 597.837 691.93 597.913 697.895 598.013 C 703.86 598.112 709.825 598.235 715.789 598.365 C 721.754 598.494 727.719 598.629 733.684 598.685 C 739.649 598.741 745.614 598.719 751.579 598.644 C 757.544 598.57 763.509 598.443 769.474 598.198 C 775.439 597.954 781.404 597.592 787.368 597.14 C 793.333 596.689 799.298 596.149 805.263 595.705 C 811.228 595.26 817.193 594.912 823.158 594.677 C 829.123 594.442 835.088 594.32 841.053 594.326 C 847.018 594.333 852.982 594.468 858.947 594.65 C 864.912 594.832 870.877 595.061 876.842 595.309 C 882.807 595.557 888.772 595.825 894.737 596.093 C 900.702 596.36 906.667 596.628 912.632 596.773 C 918.596 596.917 924.561 596.938 930.526 596.898 C 936.491 596.857 942.456 596.755 948.421 596.7 C 954.386 596.645 960.351 596.637 966.316 596.637 C 972.281 596.637 978.246 596.645 984.211 596.626 C 990.175 596.606 996.14 596.56 1002.11 596.504 C 1008.07 596.448 1014.04 596.382 1020 596.317" /></g><g><path id="textpath-wfn-netherlands-eredivisie-oc_other" style="fill: none; stroke: black;" d="M 0 600 C 5.96491 600 11.9298 600 17.8947 600 C 23.8596 600 29.8246 600 35.7895 600 C 41.7544 600 47.7193 600 53.6842 600 C 59.6491 600 65.614 600 71.5789 600 C 77.5439 600 83.5088 600 89.4737 600 C 95.4386 600 101.404 600 107.368 600 C 113.333 600 119.298 600.001 125.263 600 C 131.228 599.999 137.193 599.995 143.158 600 C 149.123 600.005 155.088 600.017 161.053 600 C 167.018 599.983 172.982 599.936 178.947 599.829 C 184.912 599.722 190.877 599.554 196.842 599.416 C 202.807 599.278 208.772 599.17 214.737 599.093 C 220.702 599.016 226.667 598.971 232.632 598.98 C 238.596 598.989 244.561 599.051 250.526 599.122 C 256.491 599.193 262.456 599.274 268.421 599.355 C 274.386 599.435 280.351 599.515 286.316 599.609 C 292.281 599.702 298.246 599.809 304.211 599.87 C 310.175 599.93 316.14 599.944 322.105 599.956 C 328.07 599.969 334.035 599.98 340 599.985 C 345.965 599.991 351.93 599.991 357.895 599.995 C 363.86 600 369.825 600.009 375.789 599.998 C 381.754 599.988 387.719 599.957 393.684 599.913 C 399.649 599.869 405.614 599.811 411.579 599.709 C 417.544 599.607 423.509 599.461 429.474 599.287 C 435.439 599.114 441.404 598.913 447.368 598.708 C 453.333 598.503 459.298 598.294 465.263 598.093 C 471.228 597.892 477.193 597.699 483.158 597.493 C 489.123 597.287 495.088 597.068 501.053 596.823 C 507.018 596.579 512.982 596.309 518.947 596.038 C 524.912 595.766 530.877 595.492 536.842 595.311 C 542.807 595.129 548.772 595.04 554.737 595.09 C 560.702 595.141 566.667 595.331 572.632 595.593 C 578.596 595.854 584.561 596.186 590.526 596.339 C 596.491 596.491 602.456 596.464 608.421 596.258 C 614.386 596.053 620.351 595.67 626.316 595.256 C 632.281 594.842 638.246 594.397 644.211 594.066 C 650.175 593.735 656.14 593.518 662.105 593.433 C 668.07 593.348 674.035 593.395 680 593.461 C 685.965 593.528 691.93 593.615 697.895 593.647 C 703.86 593.68 709.825 593.658 715.789 593.635 C 721.754 593.612 727.719 593.589 733.684 593.53 C 739.649 593.471 745.614 593.378 751.579 593.254 C 757.544 593.13 763.509 592.977 769.474 592.567 C 775.439 592.157 781.404 591.49 787.368 590.597 C 793.333 589.704 799.298 588.583 805.263 587.724 C 811.228 586.866 817.193 586.269 823.158 585.923 C 829.123 585.577 835.088 585.482 841.053 585.624 C 847.018 585.766 852.982 586.146 858.947 586.562 C 864.912 586.979 870.877 587.432 876.842 587.926 C 882.807 588.42 888.772 588.956 894.737 589.479 C 900.702 590.002 906.667 590.513 912.632 590.717 C 918.596 590.921 924.561 590.818 930.526 590.627 C 936.491 590.436 942.456 590.157 948.421 590.009 C 954.386 589.861 960.351 589.846 966.316 589.82 C 972.281 589.794 978.246 589.757 984.211 589.589 C 990.175 589.421 996.14 589.121 1002.11 588.835 C 1008.07 588.549 1014.04 588.277 1020 588.005" /></g><g><path id="textpath-wfn-netherlands-eredivisie-as_other" style="fill: none; stroke: black;" d="M 0 600 C 5.96491 600 11.9298 600 17.8947 600 C 23.8596 600 29.8246 600 35.7895 600 C 41.7544 600 47.7193 600 53.6842 600 C 59.6491 600 65.614 600 71.5789 600 C 77.5439 600 83.5088 600 89.4737 600 C 95.4386 600 101.404 600 107.368 600 C 113.333 600 119.298 600.002 125.263 600 C 131.228 599.998 137.193 599.993 143.158 600 C 149.123 600.007 155.088 600.027 161.053 600 C 167.018 599.973 172.982 599.901 178.947 599.744 C 184.912 599.586 190.877 599.345 196.842 599.124 C 202.807 598.903 208.772 598.703 214.737 598.549 C 220.702 598.396 226.667 598.288 232.632 598.26 C 238.596 598.231 244.561 598.281 250.526 598.346 C 256.491 598.41 262.456 598.489 268.421 598.568 C 274.386 598.648 280.351 598.728 286.316 598.825 C 292.281 598.922 298.246 599.037 304.211 599.088 C 310.175 599.138 316.14 599.124 322.105 599.087 C 328.07 599.05 334.035 598.991 340 598.915 C 345.965 598.839 351.93 598.746 357.895 598.679 C 363.86 598.612 369.825 598.572 375.789 598.508 C 381.754 598.444 387.719 598.357 393.684 598.277 C 399.649 598.197 405.614 598.124 411.579 598.031 C 417.544 597.938 423.509 597.824 429.474 597.683 C 435.439 597.542 441.404 597.374 447.368 597.21 C 453.333 597.046 459.298 596.886 465.263 596.72 C 471.228 596.554 477.193 596.383 483.158 596.179 C 489.123 595.975 495.088 595.74 501.053 595.381 C 507.018 595.021 512.982 594.538 518.947 594.065 C 524.912 593.592 530.877 593.129 536.842 592.839 C 542.807 592.55 548.772 592.435 554.737 592.54 C 560.702 592.645 566.667 592.972 572.632 593.344 C 578.596 593.716 584.561 594.133 590.526 594.286 C 596.491 594.439 602.456 594.328 608.421 593.991 C 614.386 593.654 620.351 593.09 626.316 592.381 C 632.281 591.672 638.246 590.818 644.211 590.185 C 650.175 589.552 656.14 589.14 662.105 588.924 C 668.07 588.708 674.035 588.687 680 588.723 C 685.965 588.759 691.93 588.851 697.895 588.727 C 703.86 588.602 709.825 588.26 715.789 587.809 C 721.754 587.359 727.719 586.799 733.684 586.46 C 739.649 586.122 745.614 586.004 751.579 585.669 C 757.544 585.335 763.509 584.782 769.474 584.141 C 775.439 583.5 781.404 582.771 787.368 581.589 C 793.333 580.407 799.298 578.772 805.263 577.764 C 811.228 576.756 817.193 576.375 823.158 576.211 C 829.123 576.047 835.088 576.101 841.053 576.346 C 847.018 576.591 852.982 577.026 858.947 577.151 C 864.912 577.275 870.877 577.089 876.842 577.222 C 882.807 577.356 888.772 577.808 894.737 578.085 C 900.702 578.362 906.667 578.464 912.632 578.679 C 918.596 578.894 924.561 579.222 930.526 579.127 C 936.491 579.032 942.456 578.514 948.421 578.406 C 954.386 578.298 960.351 578.601 966.316 578.708 C 972.281 578.815 978.246 578.727 984.211 578.476 C 990.175 578.225 996.14 577.81 1002.11 577.427 C 1008.07 577.045 1014.04 576.695 1020 576.345" /></g><g><path id="textpath-wfn-netherlands-eredivisie-sa_other" style="fill: none; stroke: black;" d="M 0 597.795 C 5.96491 597.79 11.9298 597.784 17.8947 597.829 C 23.8596 597.875 29.8246 597.972 35.7895 598.122 C 41.7544 598.272 47.7193 598.476 53.6842 598.696 C 59.6491 598.916 65.614 599.152 71.5789 599.346 C 77.5439 599.54 83.5088 599.691 89.4737 599.782 C 95.4386 599.873 101.404 599.903 107.368 599.927 C 113.333 599.951 119.298 599.969 125.263 599.976 C 131.228 599.982 137.193 599.977 143.158 599.992 C 149.123 600.007 155.088 600.041 161.053 599.997 C 167.018 599.953 172.982 599.831 178.947 599.572 C 184.912 599.313 190.877 598.916 196.842 598.54 C 202.807 598.163 208.772 597.805 214.737 597.552 C 220.702 597.3 226.667 597.152 232.632 597.118 C 238.596 597.083 244.561 597.162 250.526 597.249 C 256.491 597.337 262.456 597.432 268.421 597.501 C 274.386 597.57 280.351 597.612 286.316 597.689 C 292.281 597.766 298.246 597.879 304.211 597.931 C 310.175 597.983 316.14 597.974 322.105 597.922 C 328.07 597.87 334.035 597.776 340 597.661 C 345.965 597.547 351.93 597.412 357.895 597.301 C 363.86 597.19 369.825 597.104 375.789 596.997 C 381.754 596.891 387.719 596.765 393.684 596.635 C 399.649 596.505 405.614 596.371 411.579 596.172 C 417.544 595.973 423.509 595.708 429.474 595.398 C 435.439 595.089 441.404 594.734 447.368 594.425 C 453.333 594.117 459.298 593.854 465.263 593.611 C 471.228 593.368 477.193 593.145 483.158 592.921 C 489.123 592.698 495.088 592.474 501.053 592.117 C 507.018 591.76 512.982 591.27 518.947 590.821 C 524.912 590.371 530.877 589.961 536.842 589.782 C 542.807 589.603 548.772 589.654 554.737 589.799 C 560.702 589.945 566.667 590.186 572.632 590.374 C 578.596 590.561 584.561 590.695 590.526 590.443 C 596.491 590.191 602.456 589.554 608.421 588.737 C 614.386 587.92 620.351 586.922 626.316 585.59 C 632.281 584.257 638.246 582.589 644.211 581.397 C 650.175 580.205 656.14 579.489 662.105 579.083 C 668.07 578.678 674.035 578.584 680 578.888 C 685.965 579.193 691.93 579.895 697.895 580.108 C 703.86 580.32 709.825 580.041 715.789 579.519 C 721.754 578.996 727.719 578.23 733.684 577.547 C 739.649 576.864 745.614 576.265 751.579 575.75 C 757.544 575.236 763.509 574.807 769.474 574.227 C 775.439 573.647 781.404 572.915 787.368 571.719 C 793.333 570.523 799.298 568.863 805.263 567.607 C 811.228 566.35 817.193 565.496 823.158 565.103 C 829.123 564.709 835.088 564.775 841.053 565.129 C 847.018 565.483 852.982 566.126 858.947 565.987 C 864.912 565.848 870.877 564.927 876.842 564.314 C 882.807 563.701 888.772 563.395 894.737 562.962 C 900.702 562.529 906.667 561.967 912.632 562.42 C 918.596 562.872 924.561 564.339 930.526 565.21 C 936.491 566.081 942.456 566.357 948.421 567.016 C 954.386 567.676 960.351 568.719 966.316 569.199 C 972.281 569.679 978.246 569.596 984.211 569.438 C 990.175 569.28 996.14 569.048 1002.11 568.794 C 1008.07 568.54 1014.04 568.265 1020 567.99" /></g><g><path id="textpath-wfn-netherlands-eredivisie-bra" style="fill: none; stroke: black;" d="M 0 595.59 C 5.96491 595.579 11.9298 595.568 17.8947 595.659 C 23.8596 595.75 29.8246 595.943 35.7895 596.244 C 41.7544 596.544 47.7193 596.951 53.6842 597.391 C 59.6491 597.831 65.614 598.304 71.5789 598.692 C 77.5439 599.08 83.5088 599.382 89.4737 599.564 C 95.4386 599.746 101.404 599.807 107.368 599.855 C 113.333 599.902 119.298 599.936 125.263 599.952 C 131.228 599.967 137.193 599.964 143.158 599.984 C 149.123 600.004 155.088 600.046 161.053 599.995 C 167.018 599.943 172.982 599.797 178.947 599.485 C 184.912 599.174 190.877 598.697 196.842 598.247 C 202.807 597.797 208.772 597.373 214.737 597.099 C 220.702 596.824 226.667 596.699 232.632 596.696 C 238.596 596.693 244.561 596.812 250.526 596.929 C 256.491 597.046 262.456 597.161 268.421 597.22 C 274.386 597.28 280.351 597.283 286.316 597.336 C 292.281 597.389 298.246 597.492 304.211 597.556 C 310.175 597.62 316.14 597.645 322.105 597.627 C 328.07 597.61 334.035 597.55 340 597.478 C 345.965 597.406 351.93 597.321 357.895 597.24 C 363.86 597.159 369.825 597.083 375.789 596.977 C 381.754 596.871 387.719 596.735 393.684 596.542 C 399.649 596.348 405.614 596.097 411.579 595.702 C 417.544 595.307 423.509 594.768 429.474 594.182 C 435.439 593.596 441.404 592.961 447.368 592.433 C 453.333 591.904 459.298 591.482 465.263 591.116 C 471.228 590.75 477.193 590.441 483.158 590.13 C 489.123 589.819 495.088 589.506 501.053 589.095 C 507.018 588.685 512.982 588.176 518.947 587.739 C 524.912 587.302 530.877 586.935 536.842 586.864 C 542.807 586.792 548.772 587.016 554.737 587.194 C 560.702 587.372 566.667 587.505 572.632 587.456 C 578.596 587.407 584.561 587.177 590.526 586.385 C 596.491 585.593 602.456 584.24 608.421 582.639 C 614.386 581.038 620.351 579.188 626.316 577.219 C 632.281 575.25 638.246 573.161 644.211 571.737 C 650.175 570.313 656.14 569.552 662.105 569.254 C 668.07 568.956 674.035 569.119 680 569.577 C 685.965 570.036 691.93 570.789 697.895 570.889 C 703.86 570.989 709.825 570.434 715.789 569.624 C 721.754 568.814 727.719 567.749 733.684 566.746 C 739.649 565.743 745.614 564.803 751.579 564.033 C 757.544 563.264 763.509 562.666 769.474 561.95 C 775.439 561.234 781.404 560.401 787.368 558.994 C 793.333 557.588 799.298 555.608 805.263 553.933 C 811.228 552.259 817.193 550.889 823.158 550.058 C 829.123 549.227 835.088 548.933 841.053 549.214 C 847.018 549.494 852.982 550.349 858.947 550.551 C 864.912 550.754 870.877 550.306 876.842 550.167 C 882.807 550.028 888.772 550.2 894.737 550.28 C 900.702 550.361 906.667 550.351 912.632 551.416 C 918.596 552.481 924.561 554.621 930.526 556.05 C 936.491 557.478 942.456 558.194 948.421 559.131 C 954.386 560.067 960.351 561.224 966.316 561.79 C 972.281 562.356 978.246 562.33 984.211 562.297 C 990.175 562.263 996.14 562.22 1002.11 562.108 C 1008.07 561.997 1014.04 561.816 1020 561.635" /></g><g><path id="textpath-wfn-netherlands-eredivisie-af_other" style="fill: none; stroke: black;" d="M 0 595.59 C 5.96491 595.579 11.9298 595.568 17.8947 595.659 C 23.8596 595.75 29.8246 595.943 35.7895 596.244 C 41.7544 596.544 47.7193 596.951 53.6842 597.391 C 59.6491 597.831 65.614 598.304 71.5789 598.692 C 77.5439 599.08 83.5088 599.382 89.4737 599.564 C 95.4386 599.746 101.404 599.807 107.368 599.855 C 113.333 599.902 119.298 599.936 125.263 599.952 C 131.228 599.967 137.193 599.964 143.158 599.984 C 149.123 600.004 155.088 600.046 161.053 599.995 C 167.018 599.943 172.982 599.797 178.947 599.485 C 184.912 599.173 190.877 598.695 196.842 598.247 C 202.807 597.8 208.772 597.383 214.737 597.099 C 220.702 596.815 226.667 596.664 232.632 596.608 C 238.596 596.552 244.561 596.59 250.526 596.636 C 256.491 596.683 262.456 596.737 268.421 596.772 C 274.386 596.808 280.351 596.826 286.316 596.925 C 292.281 597.023 298.246 597.203 304.211 597.332 C 310.175 597.461 316.14 597.539 322.105 597.552 C 328.07 597.566 334.035 597.514 340 597.453 C 345.965 597.392 351.93 597.322 357.895 597.232 C 363.86 597.142 369.825 597.033 375.789 596.888 C 381.754 596.743 387.719 596.563 393.684 596.34 C 399.649 596.118 405.614 595.854 411.579 595.463 C 417.544 595.072 423.509 594.555 429.474 594.016 C 435.439 593.478 441.404 592.918 447.368 592.378 C 453.333 591.838 459.298 591.317 465.263 590.844 C 471.228 590.371 477.193 589.946 483.158 589.121 C 489.123 588.297 495.088 587.073 501.053 585.846 C 507.018 584.619 512.982 583.389 518.947 582.088 C 524.912 580.788 530.877 579.417 536.842 578.955 C 542.807 578.492 548.772 578.938 554.737 578.806 C 560.702 578.675 566.667 577.967 572.632 577.4 C 578.596 576.833 584.561 576.408 590.526 575.062 C 596.491 573.716 602.456 571.449 608.421 569.112 C 614.386 566.775 620.351 564.367 626.316 561.373 C 632.281 558.379 638.246 554.798 644.211 551.886 C 650.175 548.973 656.14 546.729 662.105 545.242 C 668.07 543.755 674.035 543.026 680 542.748 C 685.965 542.469 691.93 542.641 697.895 542.29 C 703.86 541.94 709.825 541.067 715.789 540.09 C 721.754 539.113 727.719 538.032 733.684 537.132 C 739.649 536.232 745.614 535.514 751.579 535.108 C 757.544 534.701 763.509 534.607 769.474 534.423 C 775.439 534.239 781.404 533.966 787.368 533.095 C 793.333 532.224 799.298 530.755 805.263 529.432 C 811.228 528.11 817.193 526.934 823.158 526.101 C 829.123 525.268 835.088 524.779 841.053 524.965 C 847.018 525.151 852.982 526.012 858.947 526.27 C 864.912 526.528 870.877 526.183 876.842 526.253 C 882.807 526.322 888.772 526.806 894.737 527.296 C 900.702 527.786 906.667 528.282 912.632 529.776 C 918.596 531.271 924.561 533.765 930.526 535.588 C 936.491 537.41 942.456 538.562 948.421 539.876 C 954.386 541.19 960.351 542.667 966.316 543.661 C 972.281 544.656 978.246 545.169 984.211 545.715 C 990.175 546.26 996.14 546.838 1002.11 547.134 C 1008.07 547.43 1014.04 547.445 1020 547.459" /></g><g><path id="textpath-wfn-netherlands-eredivisie-mar" style="fill: none; stroke: black;" d="M 0 595.59 C 5.96491 595.579 11.9298 595.568 17.8947 595.659 C 23.8596 595.75 29.8246 595.943 35.7895 596.244 C 41.7544 596.544 47.7193 596.951 53.6842 597.391 C 59.6491 597.831 65.614 598.304 71.5789 598.692 C 77.5439 599.08 83.5088 599.382 89.4737 599.564 C 95.4386 599.746 101.404 599.807 107.368 599.855 C 113.333 599.902 119.298 599.936 125.263 599.952 C 131.228 599.967 137.193 599.964 143.158 599.984 C 149.123 600.004 155.088 600.046 161.053 599.995 C 167.018 599.943 172.982 599.798 178.947 599.485 C 184.912 599.173 190.877 598.692 196.842 598.247 C 202.807 597.802 208.772 597.392 214.737 597.099 C 220.702 596.806 226.667 596.629 232.632 596.52 C 238.596 596.41 244.561 596.368 250.526 596.344 C 256.491 596.319 262.456 596.312 268.421 596.324 C 274.386 596.337 280.351 596.369 286.316 596.513 C 292.281 596.657 298.246 596.914 304.211 597.108 C 310.175 597.302 316.14 597.434 322.105 597.478 C 328.07 597.522 334.035 597.478 340 597.428 C 345.965 597.378 351.93 597.322 357.895 597.224 C 363.86 597.125 369.825 596.983 375.789 596.799 C 381.754 596.616 387.719 596.391 393.684 596.139 C 399.649 595.887 405.614 595.609 411.579 595.224 C 417.544 594.839 423.509 594.347 429.474 593.851 C 435.439 593.354 441.404 592.852 447.368 592.323 C 453.333 591.793 459.298 591.236 465.263 590.657 C 471.228 590.079 477.193 589.479 483.158 588.392 C 489.123 587.305 495.088 585.731 501.053 584.107 C 507.018 582.483 512.982 580.809 518.947 579.105 C 524.912 577.402 530.877 575.669 536.842 574.761 C 542.807 573.853 548.772 573.768 554.737 573.064 C 560.702 572.361 566.667 571.038 572.632 569.967 C 578.596 568.896 584.561 568.078 590.526 566.436 C 596.491 564.794 602.456 562.328 608.421 559.608 C 614.386 556.889 620.351 553.915 626.316 549.943 C 632.281 545.97 638.246 540.999 644.211 536.55 C 650.175 532.102 656.14 528.177 662.105 525.26 C 668.07 522.344 674.035 520.437 680 519.201 C 685.965 517.964 691.93 517.399 697.895 516.581 C 703.86 515.763 709.825 514.691 715.789 513.664 C 721.754 512.637 727.719 511.653 733.684 510.91 C 739.649 510.168 745.614 509.666 751.579 509.528 C 757.544 509.391 763.509 509.619 769.474 509.654 C 775.439 509.689 781.404 509.532 787.368 508.908 C 793.333 508.283 799.298 507.19 805.263 506.289 C 811.228 505.388 817.193 504.678 823.158 504.272 C 829.123 503.865 835.088 503.762 841.053 504.273 C 847.018 504.784 852.982 505.91 858.947 506.235 C 864.912 506.559 870.877 506.082 876.842 506.029 C 882.807 505.976 888.772 506.348 894.737 506.795 C 900.702 507.241 906.667 507.763 912.632 509.235 C 918.596 510.707 924.561 513.128 930.526 515.07 C 936.491 517.012 942.456 518.474 948.421 520.136 C 954.386 521.798 960.351 523.66 966.316 525.112 C 972.281 526.565 978.246 527.607 984.211 528.615 C 990.175 529.623 996.14 530.596 1002.11 531.106 C 1008.07 531.617 1014.04 531.666 1020 531.714" /></g><g><path id="textpath-wfn-netherlands-eredivisie-eu_other" style="fill: none; stroke: black;" d="M 0 592.245 C 5.96491 592.207 11.9298 592.17 17.8947 592.365 C 23.8596 592.56 29.8246 592.987 35.7895 593.511 C 41.7544 594.035 47.7193 594.655 53.6842 595.192 C 59.6491 595.728 65.614 596.181 71.5789 596.231 C 77.5439 596.281 83.5088 595.928 89.4737 595.42 C 95.4386 594.912 101.404 594.249 107.368 593.638 C 113.333 593.026 119.298 592.466 125.263 591.872 C 131.228 591.278 137.193 590.651 143.158 590.131 C 149.123 589.612 155.088 589.201 161.053 588.736 C 167.018 588.271 172.982 587.753 178.947 587.326 C 184.912 586.899 190.877 586.563 196.842 586.29 C 202.807 586.016 208.772 585.804 214.737 585.719 C 220.702 585.635 226.667 585.677 232.632 585.667 C 238.596 585.657 244.561 585.594 250.526 585.331 C 256.491 585.069 262.456 584.608 268.421 584.139 C 274.386 583.67 280.351 583.193 286.316 582.905 C 292.281 582.616 298.246 582.515 304.211 582.695 C 310.175 582.876 316.14 583.338 322.105 583.81 C 328.07 584.283 334.035 584.765 340 585.216 C 345.965 585.667 351.93 586.087 357.895 586.249 C 363.86 586.411 369.825 586.316 375.789 585.975 C 381.754 585.634 387.719 585.046 393.684 584.495 C 399.649 583.944 405.614 583.43 411.579 582.8 C 417.544 582.17 423.509 581.424 429.474 580.622 C 435.439 579.82 441.404 578.962 447.368 578.252 C 453.333 577.541 459.298 576.978 465.263 576.275 C 471.228 575.573 477.193 574.73 483.158 573.923 C 489.123 573.116 495.088 572.345 501.053 571.13 C 507.018 569.916 512.982 568.258 518.947 566.888 C 524.912 565.518 530.877 564.436 536.842 563.613 C 542.807 562.79 548.772 562.227 554.737 561.39 C 560.702 560.553 566.667 559.442 572.632 558.103 C 578.596 556.764 584.561 555.197 590.526 552.636 C 596.491 550.075 602.456 546.52 608.421 542.009 C 614.386 537.497 620.351 532.029 626.316 525.37 C 632.281 518.712 638.246 510.863 644.211 503.89 C 650.175 496.917 656.14 490.82 662.105 486.273 C 668.07 481.726 674.035 478.73 680 476.921 C 685.965 475.112 691.93 474.49 697.895 473.583 C 703.86 472.676 709.825 471.484 715.789 470.271 C 721.754 469.059 727.719 467.825 733.684 466.841 C 739.649 465.857 745.614 465.122 751.579 464.621 C 757.544 464.12 763.509 463.852 769.474 463.446 C 775.439 463.04 781.404 462.496 787.368 461.669 C 793.333 460.841 799.298 459.73 805.263 458.931 C 811.228 458.133 817.193 457.646 823.158 457.363 C 829.123 457.079 835.088 456.999 841.053 457.128 C 847.018 457.258 852.982 457.599 858.947 457.24 C 864.912 456.88 870.877 455.821 876.842 455.678 C 882.807 455.536 888.772 456.309 894.737 457.335 C 900.702 458.361 906.667 459.64 912.632 461.94 C 918.596 464.241 924.561 467.564 930.526 470.076 C 936.491 472.589 942.456 474.292 948.421 475.945 C 954.386 477.598 960.351 479.201 966.316 480.155 C 972.281 481.108 978.246 481.41 984.211 481.483 C 990.175 481.555 996.14 481.396 1002.11 481.176 C 1008.07 480.957 1014.04 480.675 1020 480.394" /></g><g><path id="textpath-wfn-netherlands-eredivisie-srb" style="fill: none; stroke: black;" d="M 0 588.899 C 5.96491 588.832 11.9298 588.766 17.8947 589.07 C 23.8596 589.375 29.8246 590.051 35.7895 590.779 C 41.7544 591.507 47.7193 592.288 53.6842 592.622 C 59.6491 592.956 65.614 592.842 71.5789 591.83 C 77.5439 590.818 83.5088 588.908 89.4737 586.842 C 95.4386 584.776 101.404 582.554 107.368 580.791 C 113.333 579.028 119.298 577.724 125.263 576.639 C 131.228 575.554 137.193 574.687 143.158 574.061 C 149.123 573.435 155.088 573.049 161.053 572.661 C 167.018 572.272 172.982 571.879 178.947 571.783 C 184.912 571.687 190.877 571.887 196.842 572.11 C 202.807 572.334 208.772 572.582 214.737 572.788 C 220.702 572.993 226.667 573.155 232.632 573.045 C 238.596 572.936 244.561 572.555 250.526 571.779 C 256.491 571.003 262.456 569.832 268.421 568.736 C 274.386 567.64 280.351 566.62 286.316 565.961 C 292.281 565.303 298.246 565.005 304.211 565.35 C 310.175 565.695 316.14 566.682 322.105 567.776 C 328.07 568.87 334.035 570.072 340 571.172 C 345.965 572.271 351.93 573.268 357.895 573.785 C 363.86 574.303 369.825 574.341 375.789 573.945 C 381.754 573.549 387.719 572.72 393.684 571.999 C 399.649 571.277 405.614 570.663 411.579 569.909 C 417.544 569.155 423.509 568.26 429.474 567.237 C 435.439 566.214 441.404 565.063 447.368 564.129 C 453.333 563.194 459.298 562.477 465.263 561.876 C 471.228 561.275 477.193 560.79 483.158 560.449 C 489.123 560.107 495.088 559.909 501.053 559.068 C 507.018 558.226 512.982 556.742 518.947 555.394 C 524.912 554.045 530.877 552.832 536.842 551.962 C 542.807 551.092 548.772 550.565 554.737 549.889 C 560.702 549.213 566.667 548.388 572.632 546.971 C 578.596 545.554 584.561 543.545 590.526 540.101 C 596.491 536.657 602.456 531.777 608.421 525.389 C 614.386 519.001 620.351 511.105 626.316 501.883 C 632.281 492.661 638.246 482.114 644.211 472.9 C 650.175 463.687 656.14 455.807 662.105 450.03 C 668.07 444.252 674.035 440.577 680 438.6 C 685.965 436.623 691.93 436.344 697.895 435.637 C 703.86 434.93 709.825 433.796 715.789 432.502 C 721.754 431.209 727.719 429.756 733.684 428.596 C 739.649 427.436 745.614 426.569 751.579 425.905 C 757.544 425.24 763.509 424.779 769.474 424.283 C 775.439 423.787 781.404 423.258 787.368 422.465 C 793.333 421.672 799.298 420.615 805.263 419.907 C 811.228 419.199 817.193 418.84 823.158 418.459 C 829.123 418.078 835.088 417.675 841.053 416.993 C 847.018 416.311 852.982 415.35 858.947 413.889 C 864.912 412.428 870.877 410.466 876.842 410.104 C 882.807 409.743 888.772 410.981 894.737 412.735 C 900.702 414.489 906.667 416.759 912.632 420.049 C 918.596 423.34 924.561 427.652 930.526 430.763 C 936.491 433.874 942.456 435.784 948.421 437.506 C 954.386 439.228 960.351 440.763 966.316 441.484 C 972.281 442.205 978.246 442.113 984.211 441.594 C 990.175 441.075 996.14 440.13 1002.11 439.425 C 1008.07 438.72 1014.04 438.255 1020 437.791" /></g><g><path id="textpath-wfn-netherlands-eredivisie-dnk" style="fill: none; stroke: black;" d="M 0 588.899 C 5.96491 588.824 11.9298 588.748 17.8947 589.07 C 23.8596 589.393 29.8246 590.112 35.7895 590.779 C 41.7544 591.446 47.7193 592.059 53.6842 591.881 C 59.6491 591.703 65.614 590.734 71.5789 588.565 C 77.5439 586.397 83.5088 583.03 89.4737 579.556 C 95.4386 576.082 101.404 572.502 107.368 569.726 C 113.333 566.951 119.298 564.981 125.263 563.585 C 131.228 562.189 137.193 561.368 143.158 561.017 C 149.123 560.667 155.088 560.788 161.053 561.024 C 167.018 561.259 172.982 561.609 178.947 562.198 C 184.912 562.786 190.877 563.613 196.842 564.291 C 202.807 564.969 208.772 565.499 214.737 565.69 C 220.702 565.882 226.667 565.737 232.632 565.213 C 238.596 564.69 244.561 563.789 250.526 562.583 C 256.491 561.377 262.456 559.866 268.421 558.638 C 274.386 557.41 280.351 556.466 286.316 555.898 C 292.281 555.331 298.246 555.141 304.211 555.388 C 310.175 555.636 316.14 556.322 322.105 557.208 C 328.07 558.094 334.035 559.18 340 560.23 C 345.965 561.28 351.93 562.292 357.895 562.955 C 363.86 563.618 369.825 563.931 375.789 563.915 C 381.754 563.899 387.719 563.553 393.684 563.352 C 399.649 563.151 405.614 563.095 411.579 562.888 C 417.544 562.681 423.509 562.323 429.474 561.659 C 435.439 560.996 441.404 560.028 447.368 559.276 C 453.333 558.524 459.298 557.989 465.263 557.549 C 471.228 557.109 477.193 556.765 483.158 556.529 C 489.123 556.294 495.088 556.166 501.053 555.416 C 507.018 554.665 512.982 553.292 518.947 552.022 C 524.912 550.753 530.877 549.587 536.842 548.708 C 542.807 547.828 548.772 547.236 554.737 546.436 C 560.702 545.637 566.667 544.63 572.632 543.031 C 578.596 541.432 584.561 539.241 590.526 535.536 C 596.491 531.831 602.456 526.612 608.421 519.831 C 614.386 513.051 620.351 504.707 626.316 495.073 C 632.281 485.439 638.246 474.515 644.211 464.955 C 650.175 455.395 656.14 447.199 662.105 441.097 C 668.07 434.995 674.035 430.987 680 428.69 C 685.965 426.394 691.93 425.809 697.895 424.899 C 703.86 423.989 709.825 422.755 715.789 421.413 C 721.754 420.071 727.719 418.621 733.684 417.548 C 739.649 416.476 745.614 415.781 751.579 415.384 C 757.544 414.987 763.509 414.889 769.474 414.675 C 775.439 414.461 781.404 414.132 787.368 413.391 C 793.333 412.65 799.298 411.497 805.263 410.659 C 811.228 409.82 817.193 409.297 823.158 408.745 C 829.123 408.193 835.088 407.613 841.053 406.637 C 847.018 405.661 852.982 404.289 858.947 402.459 C 864.912 400.63 870.877 398.344 876.842 397.915 C 882.807 397.486 888.772 398.914 894.737 400.948 C 900.702 402.981 906.667 405.621 912.632 409.112 C 918.596 412.603 924.561 416.947 930.526 419.988 C 936.491 423.03 942.456 424.768 948.421 426.519 C 954.386 428.27 960.351 430.034 966.316 431.086 C 972.281 432.139 978.246 432.482 984.211 432.303 C 990.175 432.125 996.14 431.426 1002.11 430.863 C 1008.07 430.301 1014.04 429.876 1020 429.451" /></g><g><path id="textpath-wfn-netherlands-eredivisie-deu" style="fill: none; stroke: black;" d="M 0 578.594 C 5.96491 578.693 11.9298 578.792 17.8947 579.337 C 23.8596 579.882 29.8246 580.873 35.7895 581.501 C 41.7544 582.13 47.7193 582.395 53.6842 581.771 C 59.6491 581.146 65.614 579.63 71.5789 577.097 C 77.5439 574.565 83.5088 571.014 89.4737 567.527 C 95.4386 564.04 101.404 560.615 107.368 557.945 C 113.333 555.276 119.298 553.361 125.263 551.921 C 131.228 550.481 137.193 549.516 143.158 549.176 C 149.123 548.836 155.088 549.121 161.053 549.706 C 167.018 550.291 172.982 551.176 178.947 552.228 C 184.912 553.281 190.877 554.501 196.842 555.354 C 202.807 556.206 208.772 556.691 214.737 556.68 C 220.702 556.669 226.667 556.163 232.632 555.375 C 238.596 554.587 244.561 553.517 250.526 552.246 C 256.491 550.974 262.456 549.5 268.421 548.33 C 274.386 547.161 280.351 546.294 286.316 545.768 C 292.281 545.242 298.246 545.056 304.211 545.15 C 310.175 545.243 316.14 545.617 322.105 546.296 C 328.07 546.974 334.035 547.958 340 548.924 C 345.965 549.891 351.93 550.842 357.895 551.578 C 363.86 552.315 369.825 552.838 375.789 553.188 C 381.754 553.539 387.719 553.717 393.684 554.044 C 399.649 554.371 405.614 554.846 411.579 555.124 C 417.544 555.401 423.509 555.481 429.474 555.131 C 435.439 554.782 441.404 554.005 447.368 553.488 C 453.333 552.971 459.298 552.715 465.263 552.555 C 471.228 552.396 477.193 552.332 483.158 552.3 C 489.123 552.267 495.088 552.265 501.053 551.66 C 507.018 551.055 512.982 549.847 518.947 548.698 C 524.912 547.549 530.877 546.46 536.842 545.633 C 542.807 544.807 548.772 544.245 554.737 543.459 C 560.702 542.674 566.667 541.666 572.632 540.084 C 578.596 538.502 584.561 536.345 590.526 532.533 C 596.491 528.722 602.456 523.257 608.421 516.084 C 614.386 508.911 620.351 500.03 626.316 489.875 C 632.281 479.719 638.246 468.289 644.211 458.288 C 650.175 448.286 656.14 439.712 662.105 433.302 C 668.07 426.892 674.035 422.646 680 420.139 C 685.965 417.631 691.93 416.862 697.895 415.932 C 703.86 415.001 709.825 413.909 715.789 412.729 C 721.754 411.548 727.719 410.28 733.684 409.41 C 739.649 408.54 745.614 408.068 751.579 407.811 C 757.544 407.555 763.509 407.513 769.474 407.253 C 775.439 406.994 781.404 406.516 787.368 405.602 C 793.333 404.688 799.298 403.338 805.263 402.316 C 811.228 401.294 817.193 400.601 823.158 399.945 C 829.123 399.289 835.088 398.671 841.053 397.537 C 847.018 396.404 852.982 394.755 858.947 392.721 C 864.912 390.688 870.877 388.268 876.842 387.69 C 882.807 387.113 888.772 388.377 894.737 390.124 C 900.702 391.87 906.667 394.099 912.632 397.178 C 918.596 400.257 924.561 404.186 930.526 406.965 C 936.491 409.743 942.456 411.371 948.421 413.154 C 954.386 414.936 960.351 416.874 966.316 417.826 C 972.281 418.779 978.246 418.746 984.211 417.935 C 990.175 417.125 996.14 415.536 1002.11 414.343 C 1008.07 413.151 1014.04 412.354 1020 411.557" /></g><g><path id="textpath-wfn-netherlands-eredivisie-hun" style="fill: none; stroke: black;" d="M 0 560.534 C 5.96491 560.694 11.9298 560.854 17.8947 561.53 C 23.8596 562.205 29.8246 563.397 35.7895 564.102 C 41.7544 564.806 47.7193 565.022 53.6842 564.581 C 59.6491 564.14 65.614 563.041 71.5789 561.261 C 77.5439 559.481 83.5088 557.02 89.4737 554.644 C 95.4386 552.268 101.404 549.977 107.368 548.248 C 113.333 546.519 119.298 545.352 125.263 544.373 C 131.228 543.394 137.193 542.604 143.158 542.371 C 149.123 542.138 155.088 542.461 161.053 543.199 C 167.018 543.938 172.982 545.093 178.947 546.424 C 184.912 547.755 190.877 549.262 196.842 550.286 C 202.807 551.31 208.772 551.851 214.737 551.825 C 220.702 551.798 226.667 551.203 232.632 550.416 C 238.596 549.628 244.561 548.647 250.526 547.54 C 256.491 546.433 262.456 545.2 268.421 544.205 C 274.386 543.21 280.351 542.454 286.316 542.046 C 292.281 541.637 298.246 541.576 304.211 541.833 C 310.175 542.09 316.14 542.665 322.105 543.549 C 328.07 544.434 334.035 545.629 340 546.715 C 345.965 547.801 351.93 548.778 357.895 549.539 C 363.86 550.299 369.825 550.844 375.789 551.285 C 381.754 551.727 387.719 552.065 393.684 552.529 C 399.649 552.994 405.614 553.584 411.579 553.914 C 417.544 554.245 423.509 554.316 429.474 553.937 C 435.439 553.559 441.404 552.731 447.368 552.208 C 453.333 551.685 459.298 551.467 465.263 551.34 C 471.228 551.212 477.193 551.176 483.158 551.129 C 489.123 551.082 495.088 551.024 501.053 550.354 C 507.018 549.684 512.982 548.401 518.947 547.187 C 524.912 545.972 530.877 544.825 536.842 543.981 C 542.807 543.137 548.772 542.595 554.737 541.85 C 560.702 541.106 566.667 540.158 572.632 538.654 C 578.596 537.15 584.561 535.089 590.526 531.33 C 596.491 527.571 602.456 522.114 608.421 514.819 C 614.386 507.523 620.351 498.388 626.316 487.95 C 632.281 477.511 638.246 465.768 644.211 455.526 C 650.175 445.285 656.14 436.544 662.105 430.023 C 668.07 423.502 674.035 419.201 680 416.589 C 685.965 413.977 691.93 413.054 697.895 411.97 C 703.86 410.886 709.825 409.641 715.789 408.353 C 721.754 407.065 727.719 405.734 733.684 404.879 C 739.649 404.025 745.614 403.647 751.579 403.416 C 757.544 403.185 763.509 403.101 769.474 402.736 C 775.439 402.371 781.404 401.725 787.368 400.693 C 793.333 399.662 799.298 398.245 805.263 397.169 C 811.228 396.094 817.193 395.36 823.158 394.737 C 829.123 394.114 835.088 393.602 841.053 392.455 C 847.018 391.307 852.982 389.525 858.947 387.323 C 864.912 385.121 870.877 382.499 876.842 381.633 C 882.807 380.767 888.772 381.656 894.737 382.966 C 900.702 384.277 906.667 386.008 912.632 388.784 C 918.596 391.561 924.561 395.383 930.526 398.28 C 936.491 401.176 942.456 403.146 948.421 405.307 C 954.386 407.469 960.351 409.821 966.316 410.855 C 972.281 411.889 978.246 411.605 984.211 410.289 C 990.175 408.973 996.14 406.625 1002.11 404.897 C 1008.07 403.17 1014.04 402.062 1020 400.955" /></g><g><path id="textpath-wfn-netherlands-eredivisie-bel" style="fill: none; stroke: black;" d="M 0 552.419 C 5.96491 552.328 11.9298 552.236 17.8947 552.677 C 23.8596 553.118 29.8246 554.092 35.7895 554.802 C 41.7544 555.512 47.7193 555.959 53.6842 556.06 C 59.6491 556.162 65.614 555.918 71.5789 554.991 C 77.5439 554.064 83.5088 552.454 89.4737 550.747 C 95.4386 549.041 101.404 547.238 107.368 545.833 C 113.333 544.428 119.298 543.419 125.263 542.435 C 131.228 541.451 137.193 540.491 143.158 540.034 C 149.123 539.576 155.088 539.622 161.053 540.188 C 167.018 540.753 172.982 541.837 178.947 543.272 C 184.912 544.708 190.877 546.493 196.842 547.772 C 202.807 549.05 208.772 549.821 214.737 549.9 C 220.702 549.978 226.667 549.364 232.632 548.518 C 238.596 547.673 244.561 546.596 250.526 545.478 C 256.491 544.36 262.456 543.201 268.421 542.367 C 274.386 541.534 280.351 541.027 286.316 540.82 C 292.281 540.614 298.246 540.707 304.211 541.074 C 310.175 541.441 316.14 542.082 322.105 543.03 C 328.07 543.978 334.035 545.232 340 546.363 C 345.965 547.493 351.93 548.5 357.895 549.24 C 363.86 549.981 369.825 550.456 375.789 550.746 C 381.754 551.036 387.719 551.141 393.684 551.392 C 399.649 551.644 405.614 552.043 411.579 552.232 C 417.544 552.422 423.509 552.403 429.474 551.98 C 435.439 551.556 441.404 550.728 447.368 550.151 C 453.333 549.573 459.298 549.246 465.263 548.92 C 471.228 548.594 477.193 548.269 483.158 547.949 C 489.123 547.628 495.088 547.312 501.053 546.452 C 507.018 545.593 512.982 544.19 518.947 542.983 C 524.912 541.775 530.877 540.762 536.842 540.108 C 542.807 539.454 548.772 539.159 554.737 538.59 C 560.702 538.021 566.667 537.176 572.632 535.76 C 578.596 534.344 584.561 532.356 590.526 528.562 C 596.491 524.768 602.456 519.168 608.421 511.512 C 614.386 503.857 620.351 494.145 626.316 483.003 C 632.281 471.862 638.246 459.292 644.211 448.051 C 650.175 436.81 656.14 426.898 662.105 419.289 C 668.07 411.681 674.035 406.374 680 402.8 C 685.965 399.226 691.93 397.383 697.895 395.364 C 703.86 393.346 709.825 391.15 715.789 389.043 C 721.754 386.935 727.719 384.916 733.684 383.514 C 739.649 382.113 745.614 381.329 751.579 380.844 C 757.544 380.358 763.509 380.17 769.474 379.526 C 775.439 378.881 781.404 377.78 787.368 376.245 C 793.333 374.71 799.298 372.742 805.263 371.357 C 811.228 369.972 817.193 369.171 823.158 368.667 C 829.123 368.163 835.088 367.957 841.053 366.994 C 847.018 366.031 852.982 364.311 858.947 362.118 C 864.912 359.925 870.877 357.259 876.842 356.64 C 882.807 356.021 888.772 357.45 894.737 359.525 C 900.702 361.6 906.667 364.322 912.632 368.157 C 918.596 371.992 924.561 376.941 930.526 380.775 C 936.491 384.609 942.456 387.328 948.421 390.063 C 954.386 392.799 960.351 395.551 966.316 396.817 C 972.281 398.083 978.246 397.864 984.211 396.52 C 990.175 395.177 996.14 392.709 1002.11 390.917 C 1008.07 389.125 1014.04 388.009 1020 386.893" /></g><g><path id="textpath-wfn-netherlands-eredivisie-nld" style="fill: none; stroke: black;" d="M 0 276.03 C 5.96491 275.918 11.9298 275.806 17.8947 275.949 C 23.8596 276.092 29.8246 276.49 35.7895 276.812 C 41.7544 277.135 47.7193 277.382 53.6842 277.495 C 59.6491 277.608 65.614 277.587 71.5789 277.207 C 77.5439 276.828 83.5088 276.089 89.4737 275.278 C 95.4386 274.466 101.404 273.583 107.368 272.884 C 113.333 272.186 119.298 271.673 125.263 271.14 C 131.228 270.606 137.193 270.052 143.158 269.742 C 149.123 269.432 155.088 269.366 161.053 269.592 C 167.018 269.818 172.982 270.337 178.947 271.08 C 184.912 271.822 190.877 272.789 196.842 273.493 C 202.807 274.196 208.772 274.637 214.737 274.682 C 220.702 274.728 226.667 274.378 232.632 273.902 C 238.596 273.425 244.561 272.823 250.526 272.22 C 256.491 271.617 262.456 271.015 268.421 270.614 C 274.386 270.212 280.351 270.013 286.316 269.958 C 292.281 269.903 298.246 269.993 304.211 270.211 C 310.175 270.429 316.14 270.774 322.105 271.273 C 328.07 271.773 334.035 272.426 340 273.011 C 345.965 273.596 351.93 274.113 357.895 274.473 C 363.86 274.832 369.825 275.034 375.789 275.104 C 381.754 275.173 387.719 275.11 393.684 275.128 C 399.649 275.146 405.614 275.244 411.579 275.275 C 417.544 275.306 423.509 275.27 429.474 275.056 C 435.439 274.841 441.404 274.45 447.368 274.193 C 453.333 273.937 459.298 273.815 465.263 273.516 C 471.228 273.217 477.193 272.74 483.158 272.312 C 489.123 271.883 495.088 271.504 501.053 270.834 C 507.018 270.164 512.982 269.203 518.947 268.53 C 524.912 267.857 530.877 267.473 536.842 267.282 C 542.807 267.092 548.772 267.096 554.737 266.794 C 560.702 266.492 566.667 265.883 572.632 265.01 C 578.596 264.137 584.561 262.999 590.526 260.836 C 596.491 258.672 602.456 255.483 608.421 251.374 C 614.386 247.265 620.351 242.237 626.316 236.268 C 632.281 230.299 638.246 223.389 644.211 217.117 C 650.175 210.845 656.14 205.209 662.105 200.708 C 668.07 196.206 674.035 192.837 680 190.535 C 685.965 188.233 691.93 186.996 697.895 185.646 C 703.86 184.295 709.825 182.83 715.789 181.454 C 721.754 180.079 727.719 178.793 733.684 177.844 C 739.649 176.895 745.614 176.284 751.579 175.903 C 757.544 175.522 763.509 175.372 769.474 174.932 C 775.439 174.492 781.404 173.761 787.368 172.78 C 793.333 171.799 799.298 170.568 805.263 169.749 C 811.228 168.93 817.193 168.522 823.158 168.317 C 829.123 168.112 835.088 168.11 841.053 167.744 C 847.018 167.379 852.982 166.649 858.947 165.473 C 864.912 164.298 870.877 162.676 876.842 162.443 C 882.807 162.209 888.772 163.364 894.737 164.65 C 900.702 165.937 906.667 167.355 912.632 169.736 C 918.596 172.117 924.561 175.46 930.526 177.878 C 936.491 180.295 942.456 181.785 948.421 183.424 C 954.386 185.062 960.351 186.849 966.316 187.598 C 972.281 188.348 978.246 188.06 984.211 187.246 C 990.175 186.433 996.14 185.094 1002.11 184.131 C 1008.07 183.169 1014.04 182.583 1020 181.997" /></g></g></defs></svg>