<svg xmlns="http://www.w3.org/2000/svg" style="position: absolute;" width="1050" height="640"><g transform="translate(30 10)"><g /><g /><g /><g /><g /><g /><g /><g /><g /><g /><g /><g /><g /><g /><g /><g /><g /><g /><g /><path class="highlight" d="M 0 0" /><line class="year" style="display: none;" transform="translate(268.421)" y2="600" /><g class="group-labels" /><g class="group-labels" /><g class="group-labels" /><g class="group-labels" /><g class="group-labels" /><g class="group-labels" /><g class="group-labels"><text><textPath startOffset="869.961" href="#textpath-wfn-england-premier-league-n_am_other">North American countries</textPath></text></g><g class="group-labels"><text><textPath startOffset="914.469" href="#textpath-wfn-england-premier-league-af_other">African countries</textPath></text></g><g class="group-labels"><text><textPath startOffset="799.655" href="#textpath-wfn-england-premier-league-eu_other">Other European countries</textPath></text></g><g class="group-labels"><text><textPath startOffset="729.929" href="#textpath-wfn-england-premier-league-nor">Norway</textPath></text></g><g class="group-labels"><text><textPath startOffset="208.517" href="#textpath-wfn-england-premier-league-nir">Northern Ireland</textPath></text></g><g class="group-labels"><text><textPath startOffset="137.919" href="#textpath-wfn-england-premier-league-sco">Scotland</textPath></text></g><g class="group-labels"><text><textPath startOffset="35" href="#textpath-wfn-england-premier-league-bel">Belgium</textPath></text></g><g class="group-labels"><text><textPath startOffset="482.366" href="#textpath-wfn-england-premier-league-irl">Ireland</textPath></text></g><g class="group-labels"><text><textPath startOffset="970.313" href="#textpath-wfn-england-premier-league-nld">Netherlands</textPath></text></g><g class="group-labels"><text><textPath startOffset="982.394" href="#textpath-wfn-england-premier-league-fra">France</textPath></text></g><g class="group-labels"><text><textPath startOffset="1028.34" href="#textpath-wfn-england-premier-league-esp">Spain</textPath></text></g><g class="group-labels"><text><textPath startOffset="166.5" href="#textpath-wfn-england-premier-league-eng">England</textPath></text></g><g class="group-labels"><text><textPath startOffset="511.849" href="#textpath-wfn-england-premier-league-wal">Wales</textPath></text></g><g class="tick" transform="translate(0)"><text transform="translate(0 615)">1960</text></g><g class="tick" transform="translate(89.4737)"><text transform="translate(0 615)">1965</text></g><g class="tick" transform="translate(178.947)"><text transform="translate(0 615)">1970</text></g><g class="tick" transform="translate(268.421)"><text transform="translate(0 615)">1975</text></g><g class="tick" transform="translate(357.895)"><text transform="translate(0 615)">1980</text></g><g class="tick" transform="translate(447.368)"><text transform="translate(0 615)">1985</text></g><g class="tick" transform="translate(536.842)"><text transform="translate(0 615)">1990</text></g><g class="tick" transform="translate(626.316)"><text transform="translate(0 615)">1995</text></g><g class="tick" transform="translate(715.789)"><text transform="translate(0 615)">2000</text></g><g class="tick" transform="translate(805.263)"><text transform="translate(0 615)">2005</text></g><g class="tick" transform="translate(894.737)"><text transform="translate(0 615)">2010</text></g><g class="tick" transform="translate(984.211)"><text transform="translate(0 615)">2015</text></g><g class="tick tick-y g-baseline" transform="translate(0 600)"><line class="zero" x2="1020" /><text transform="translate(-5 7)">0%</text></g><g class="tick tick-y" transform="translate(0 450)"><line x2="1020" /><text transform="translate(-5 7)">25%</text></g><g class="tick tick-y" transform="translate(0 300)"><line x2="1020" /><text transform="translate(-5 7)">50%</text></g><g class="tick tick-y" transform="translate(0 150)"><line x2="1020" /><text transform="translate(-5 7)">75%</text></g><g class="tick tick-y g-top" transform="translate(0)"><line x2="1020" /><text transform="translate(-5 7)">100%</text></g><g class="g-bosman-rule" transform="translate(626.316)"><rect x="-8.94737" width="17.8947" height="600" /></g><text class="g-anno g-bosman-rule" style="text-anchor: start;" transform="translate(626.316)" dx="13" dy="20">← Bosman ruling</text></g><defs><g class="textpaths"><g><path id="textpath-wfn-england-premier-league-as_other" style="fill: none; stroke: black;" d="M 0 600 C 5.96491 600 11.9298 600 17.8947 600 C 23.8596 600 29.8246 600 35.7895 600 C 41.7544 600 47.7193 600 53.6842 600 C 59.6491 600 65.614 600 71.5789 600 C 77.5439 600 83.5088 600 89.4737 600 C 95.4386 600 101.404 600 107.368 600 C 113.333 600 119.298 600 125.263 600 C 131.228 600 137.193 600 143.158 600 C 149.123 600 155.088 600 161.053 600 C 167.018 600 172.982 600 178.947 600 C 184.912 600 190.877 600 196.842 600 C 202.807 600 208.772 600 214.737 600 C 220.702 600 226.667 600 232.632 600 C 238.596 600 244.561 600 250.526 600 C 256.491 600 262.456 599.999 268.421 600 C 274.386 600.001 280.351 600.004 286.316 600 C 292.281 599.996 298.246 599.984 304.211 599.936 C 310.175 599.888 316.14 599.803 322.105 599.722 C 328.07 599.641 334.035 599.563 340 599.523 C 345.965 599.482 351.93 599.48 357.895 599.52 C 363.86 599.561 369.825 599.646 375.789 599.712 C 381.754 599.778 387.719 599.826 393.684 599.838 C 399.649 599.849 405.614 599.825 411.579 599.813 C 417.544 599.802 423.509 599.804 429.474 599.805 C 435.439 599.807 441.404 599.808 447.368 599.801 C 453.333 599.794 459.298 599.779 465.263 599.729 C 471.228 599.679 477.193 599.594 483.158 599.504 C 489.123 599.413 495.088 599.317 501.053 599.236 C 507.018 599.154 512.982 599.088 518.947 599.037 C 524.912 598.985 530.877 598.949 536.842 598.942 C 542.807 598.936 548.772 598.959 554.737 599.005 C 560.702 599.052 566.667 599.121 572.632 599.164 C 578.596 599.207 584.561 599.224 590.526 599.213 C 596.491 599.203 602.456 599.165 608.421 599.1 C 614.386 599.035 620.351 598.943 626.316 598.884 C 632.281 598.825 638.246 598.799 644.211 598.774 C 650.175 598.748 656.14 598.723 662.105 598.667 C 668.07 598.61 674.035 598.521 680 598.443 C 685.965 598.365 691.93 598.297 697.895 598.221 C 703.86 598.145 709.825 598.061 715.789 597.991 C 721.754 597.922 727.719 597.868 733.684 597.8 C 739.649 597.731 745.614 597.647 751.579 597.482 C 757.544 597.317 763.509 597.071 769.474 596.706 C 775.439 596.341 781.404 595.857 787.368 595.343 C 793.333 594.83 799.298 594.286 805.263 593.931 C 811.228 593.575 817.193 593.406 823.158 593.469 C 829.123 593.531 835.088 593.825 841.053 594.168 C 847.018 594.512 852.982 594.906 858.947 595.23 C 864.912 595.555 870.877 595.809 876.842 595.932 C 882.807 596.054 888.772 596.044 894.737 596.002 C 900.702 595.96 906.667 595.886 912.632 595.884 C 918.596 595.882 924.561 595.952 930.526 596.1 C 936.491 596.249 942.456 596.477 948.421 596.708 C 954.386 596.938 960.351 597.17 966.316 597.267 C 972.281 597.364 978.246 597.325 984.211 597.201 C 990.175 597.077 996.14 596.868 1002.11 596.714 C 1008.07 596.56 1014.04 596.46 1020 596.361" /></g><g><path id="textpath-wfn-england-premier-league-oc_other" style="fill: none; stroke: black;" d="M 0 600 C 5.96491 600 11.9298 600 17.8947 600 C 23.8596 600 29.8246 600 35.7895 600 C 41.7544 600 47.7193 600 53.6842 600 C 59.6491 600 65.614 600 71.5789 600 C 77.5439 600 83.5088 600 89.4737 600 C 95.4386 600 101.404 600 107.368 600 C 113.333 600 119.298 600 125.263 600 C 131.228 600 137.193 600 143.158 600 C 149.123 600 155.088 600 161.053 600 C 167.018 600 172.982 600 178.947 600 C 184.912 600 190.877 600 196.842 600 C 202.807 600 208.772 600 214.737 600 C 220.702 600 226.667 600 232.632 600 C 238.596 600 244.561 600.001 250.526 600 C 256.491 599.999 262.456 599.998 268.421 600 C 274.386 600.002 280.351 600.009 286.316 600 C 292.281 599.991 298.246 599.968 304.211 599.872 C 310.175 599.776 316.14 599.607 322.105 599.444 C 328.07 599.282 334.035 599.126 340 599.046 C 345.965 598.965 351.93 598.959 357.895 599.041 C 363.86 599.122 369.825 599.291 375.789 599.424 C 381.754 599.556 387.719 599.652 393.684 599.675 C 399.649 599.699 405.614 599.65 411.579 599.627 C 417.544 599.604 423.509 599.607 429.474 599.61 C 435.439 599.614 441.404 599.616 447.368 599.603 C 453.333 599.589 459.298 599.559 465.263 599.459 C 471.228 599.358 477.193 599.187 483.158 599.007 C 489.123 598.828 495.088 598.641 501.053 598.471 C 507.018 598.302 512.982 598.151 518.947 598.014 C 524.912 597.878 530.877 597.756 536.842 597.691 C 542.807 597.626 548.772 597.617 554.737 597.662 C 560.702 597.707 566.667 597.805 572.632 597.877 C 578.596 597.95 584.561 597.997 590.526 598.003 C 596.491 598.009 602.456 597.975 608.421 597.895 C 614.386 597.815 620.351 597.69 626.316 597.612 C 632.281 597.535 638.246 597.504 644.211 597.445 C 650.175 597.386 656.14 597.3 662.105 597.144 C 668.07 596.989 674.035 596.763 680 596.563 C 685.965 596.364 691.93 596.189 697.895 596.021 C 703.86 595.852 709.825 595.689 715.789 595.58 C 721.754 595.47 727.719 595.415 733.684 595.308 C 739.649 595.2 745.614 595.042 751.579 594.758 C 757.544 594.475 763.509 594.067 769.474 593.117 C 775.439 592.167 781.404 590.676 787.368 589.135 C 793.333 587.594 799.298 586.003 805.263 585 C 811.228 583.996 817.193 583.579 823.158 583.861 C 829.123 584.143 835.088 585.123 841.053 586.247 C 847.018 587.37 852.982 588.637 858.947 589.489 C 864.912 590.34 870.877 590.777 876.842 591.004 C 882.807 591.23 888.772 591.245 894.737 591.191 C 900.702 591.137 906.667 591.013 912.632 591.025 C 918.596 591.037 924.561 591.185 930.526 591.475 C 936.491 591.765 942.456 592.197 948.421 592.642 C 954.386 593.087 960.351 593.545 966.316 593.743 C 972.281 593.942 978.246 593.88 984.211 593.64 C 990.175 593.4 996.14 592.982 1002.11 592.659 C 1008.07 592.336 1014.04 592.108 1020 591.88" /></g><g><path id="textpath-wfn-england-premier-league-aus" style="fill: none; stroke: black;" d="M 0 599.084 C 5.96491 599.104 11.9298 599.124 17.8947 599.173 C 23.8596 599.222 29.8246 599.299 35.7895 599.329 C 41.7544 599.358 47.7193 599.34 53.6842 599.328 C 59.6491 599.316 65.614 599.31 71.5789 599.327 C 77.5439 599.345 83.5088 599.387 89.4737 599.452 C 95.4386 599.517 101.404 599.604 107.368 599.687 C 113.333 599.769 119.298 599.847 125.263 599.896 C 131.228 599.944 137.193 599.965 143.158 599.965 C 149.123 599.966 155.088 599.947 161.053 599.92 C 167.018 599.893 172.982 599.858 178.947 599.837 C 184.912 599.816 190.877 599.81 196.842 599.809 C 202.807 599.808 208.772 599.812 214.737 599.803 C 220.702 599.793 226.667 599.769 232.632 599.736 C 238.596 599.703 244.561 599.661 250.526 599.646 C 256.491 599.631 262.456 599.643 268.421 599.681 C 274.386 599.72 280.351 599.785 286.316 599.826 C 292.281 599.868 298.246 599.885 304.211 599.814 C 310.175 599.742 316.14 599.581 322.105 599.425 C 328.07 599.269 334.035 599.118 340 599.039 C 345.965 598.96 351.93 598.954 357.895 599.039 C 363.86 599.124 369.825 599.3 375.789 599.423 C 381.754 599.546 387.719 599.616 393.684 599.609 C 399.649 599.602 405.614 599.52 411.579 599.472 C 417.544 599.424 423.509 599.412 429.474 599.426 C 435.439 599.441 441.404 599.484 447.368 599.475 C 453.333 599.467 459.298 599.407 465.263 599.208 C 471.228 599.008 477.193 598.669 483.158 598.309 C 489.123 597.948 495.088 597.568 501.053 597.233 C 507.018 596.898 512.982 596.61 518.947 596.375 C 524.912 596.14 530.877 595.959 536.842 595.81 C 542.807 595.66 548.772 595.543 554.737 595.485 C 560.702 595.427 566.667 595.43 572.632 595.377 C 578.596 595.324 584.561 595.216 590.526 595.047 C 596.491 594.877 602.456 594.646 608.421 594.447 C 614.386 594.248 620.351 594.082 626.316 593.906 C 632.281 593.731 638.246 593.546 644.211 593.312 C 650.175 593.077 656.14 592.793 662.105 592.262 C 668.07 591.732 674.035 590.955 680 590.233 C 685.965 589.511 691.93 588.843 697.895 588.314 C 703.86 587.785 709.825 587.393 715.789 587.191 C 721.754 586.989 727.719 586.977 733.684 587.036 C 739.649 587.097 745.614 587.229 751.579 587.11 C 757.544 586.991 763.509 586.62 769.474 585.637 C 775.439 584.654 781.404 583.06 787.368 581.337 C 793.333 579.615 799.298 577.764 805.263 576.584 C 811.228 575.403 817.193 574.892 823.158 575.251 C 829.123 575.61 835.088 576.838 841.053 578.315 C 847.018 579.793 852.982 581.521 858.947 582.797 C 864.912 584.072 870.877 584.896 876.842 585.378 C 882.807 585.86 888.772 586 894.737 586.044 C 900.702 586.089 906.667 586.038 912.632 586.159 C 918.596 586.281 924.561 586.574 930.526 586.948 C 936.491 587.322 942.456 587.776 948.421 588.24 C 954.386 588.705 960.351 589.18 966.316 589.441 C 972.281 589.703 978.246 589.752 984.211 589.685 C 990.175 589.619 996.14 589.437 1002.11 589.277 C 1008.07 589.116 1014.04 588.976 1020 588.837" /></g><g><path id="textpath-wfn-england-premier-league-sa_other" style="fill: none; stroke: black;" d="M 0 598.167 C 5.96491 598.208 11.9298 598.249 17.8947 598.346 C 23.8596 598.444 29.8246 598.598 35.7895 598.657 C 41.7544 598.716 47.7193 598.681 53.6842 598.656 C 59.6491 598.632 65.614 598.619 71.5789 598.655 C 77.5439 598.69 83.5088 598.775 89.4737 598.904 C 95.4386 599.034 101.404 599.209 107.368 599.374 C 113.333 599.539 119.298 599.694 125.263 599.791 C 131.228 599.889 137.193 599.929 143.158 599.93 C 149.123 599.932 155.088 599.894 161.053 599.84 C 167.018 599.786 172.982 599.715 178.947 599.674 C 184.912 599.632 190.877 599.62 196.842 599.618 C 202.807 599.616 208.772 599.625 214.737 599.605 C 220.702 599.585 226.667 599.537 232.632 599.471 C 238.596 599.405 244.561 599.321 250.526 599.291 C 256.491 599.262 262.456 599.288 268.421 599.362 C 274.386 599.437 280.351 599.559 286.316 599.652 C 292.281 599.745 298.246 599.81 304.211 599.756 C 310.175 599.702 316.14 599.53 322.105 599.342 C 328.07 599.153 334.035 598.947 340 598.818 C 345.965 598.689 351.93 598.636 357.895 598.706 C 363.86 598.777 369.825 598.971 375.789 599.118 C 381.754 599.265 387.719 599.364 393.684 599.376 C 399.649 599.387 405.614 599.311 411.579 599.262 C 417.544 599.212 423.509 599.189 429.474 599.224 C 435.439 599.258 441.404 599.35 447.368 599.341 C 453.333 599.332 459.298 599.222 465.263 598.885 C 471.228 598.549 477.193 597.988 483.158 597.381 C 489.123 596.775 495.088 596.123 501.053 595.583 C 507.018 595.043 512.982 594.615 518.947 594.328 C 524.912 594.042 530.877 593.898 536.842 593.773 C 542.807 593.648 548.772 593.542 554.737 593.477 C 560.702 593.411 566.667 593.387 572.632 593.213 C 578.596 593.038 584.561 592.715 590.526 592.248 C 596.491 591.781 602.456 591.172 608.421 590.751 C 614.386 590.331 620.351 590.1 626.316 589.532 C 632.281 588.964 638.246 588.059 644.211 587.173 C 650.175 586.286 656.14 585.417 662.105 583.977 C 668.07 582.538 674.035 580.529 680 578.912 C 685.965 577.295 691.93 576.07 697.895 575.057 C 703.86 574.043 709.825 573.241 715.789 572.804 C 721.754 572.366 727.719 572.294 733.684 572.445 C 739.649 572.595 745.614 572.968 751.579 572.989 C 757.544 573.009 763.509 572.678 769.474 571.735 C 775.439 570.792 781.404 569.239 787.368 567.482 C 793.333 565.724 799.298 563.764 805.263 562.508 C 811.228 561.252 817.193 560.7 823.158 561.063 C 829.123 561.426 835.088 562.704 841.053 564.279 C 847.018 565.854 852.982 567.726 858.947 569.197 C 864.912 570.667 870.877 571.736 876.842 572.422 C 882.807 573.107 888.772 573.409 894.737 573.591 C 900.702 573.773 906.667 573.835 912.632 574.027 C 918.596 574.219 924.561 574.541 930.526 574.887 C 936.491 575.233 942.456 575.603 948.421 575.965 C 954.386 576.327 960.351 576.681 966.316 576.918 C 972.281 577.155 978.246 577.276 984.211 577.402 C 990.175 577.527 996.14 577.659 1002.11 577.729 C 1008.07 577.799 1014.04 577.808 1020 577.818" /></g><g><path id="textpath-wfn-england-premier-league-bra" style="fill: none; stroke: black;" d="M 0 598.167 C 5.96491 598.208 11.9298 598.249 17.8947 598.346 C 23.8596 598.444 29.8246 598.598 35.7895 598.657 C 41.7544 598.716 47.7193 598.681 53.6842 598.656 C 59.6491 598.632 65.614 598.619 71.5789 598.655 C 77.5439 598.69 83.5088 598.775 89.4737 598.904 C 95.4386 599.034 101.404 599.209 107.368 599.374 C 113.333 599.539 119.298 599.694 125.263 599.791 C 131.228 599.889 137.193 599.929 143.158 599.93 C 149.123 599.932 155.088 599.894 161.053 599.84 C 167.018 599.786 172.982 599.715 178.947 599.674 C 184.912 599.632 190.877 599.62 196.842 599.618 C 202.807 599.616 208.772 599.625 214.737 599.605 C 220.702 599.585 226.667 599.537 232.632 599.471 C 238.596 599.405 244.561 599.32 250.526 599.291 C 256.491 599.262 262.456 599.289 268.421 599.362 C 274.386 599.436 280.351 599.557 286.316 599.652 C 292.281 599.747 298.246 599.816 304.211 599.756 C 310.175 599.695 316.14 599.505 322.105 599.278 C 328.07 599.05 334.035 598.785 340 598.603 C 345.965 598.421 351.93 598.323 357.895 598.376 C 363.86 598.429 369.825 598.633 375.789 598.813 C 381.754 598.993 387.719 599.149 393.684 599.209 C 399.649 599.268 405.614 599.231 411.579 599.206 C 417.544 599.182 423.509 599.17 429.474 599.205 C 435.439 599.241 441.404 599.323 447.368 599.268 C 453.333 599.212 459.298 599.017 465.263 598.587 C 471.228 598.157 477.193 597.492 483.158 596.803 C 489.123 596.114 495.088 595.401 501.053 594.849 C 507.018 594.297 512.982 593.906 518.947 593.685 C 524.912 593.463 530.877 593.409 536.842 593.364 C 542.807 593.32 548.772 593.283 554.737 593.276 C 560.702 593.27 566.667 593.293 572.632 593.091 C 578.596 592.89 584.561 592.463 590.526 591.801 C 596.491 591.139 602.456 590.242 608.421 589.547 C 614.386 588.852 620.351 588.358 626.316 587.609 C 632.281 586.86 638.246 585.857 644.211 584.888 C 650.175 583.919 656.14 582.985 662.105 581.387 C 668.07 579.788 674.035 577.525 680 575.633 C 685.965 573.741 691.93 572.219 697.895 570.923 C 703.86 569.626 709.825 568.555 715.789 567.862 C 721.754 567.169 727.719 566.854 733.684 566.786 C 739.649 566.717 745.614 566.895 751.579 566.792 C 757.544 566.69 763.509 566.308 769.474 565.413 C 775.439 564.517 781.404 563.109 787.368 561.372 C 793.333 559.636 799.298 557.571 805.263 555.954 C 811.228 554.338 817.193 553.17 823.158 552.794 C 829.123 552.418 835.088 552.834 841.053 553.711 C 847.018 554.589 852.982 555.926 858.947 557.147 C 864.912 558.367 870.877 559.47 876.842 560.295 C 882.807 561.12 888.772 561.667 894.737 562.033 C 900.702 562.399 906.667 562.585 912.632 562.778 C 918.596 562.97 924.561 563.169 930.526 563.381 C 936.491 563.593 942.456 563.817 948.421 564.028 C 954.386 564.238 960.351 564.434 966.316 564.583 C 972.281 564.732 978.246 564.833 984.211 564.998 C 990.175 565.163 996.14 565.392 1002.11 565.524 C 1008.07 565.655 1014.04 565.689 1020 565.723" /></g><g><path id="textpath-wfn-england-premier-league-arg" style="fill: none; stroke: black;" d="M 0 598.167 C 5.96491 598.208 11.9298 598.249 17.8947 598.346 C 23.8596 598.444 29.8246 598.598 35.7895 598.657 C 41.7544 598.716 47.7193 598.681 53.6842 598.656 C 59.6491 598.632 65.614 598.619 71.5789 598.655 C 77.5439 598.69 83.5088 598.775 89.4737 598.904 C 95.4386 599.034 101.404 599.209 107.368 599.374 C 113.333 599.539 119.298 599.694 125.263 599.791 C 131.228 599.889 137.193 599.929 143.158 599.93 C 149.123 599.932 155.088 599.894 161.053 599.84 C 167.018 599.786 172.982 599.715 178.947 599.674 C 184.912 599.632 190.877 599.62 196.842 599.618 C 202.807 599.616 208.772 599.624 214.737 599.605 C 220.702 599.586 226.667 599.539 232.632 599.471 C 238.596 599.403 244.561 599.314 250.526 599.291 C 256.491 599.269 262.456 599.314 268.421 599.362 C 274.386 599.41 280.351 599.462 286.316 599.453 C 292.281 599.444 298.246 599.376 304.211 599.163 C 310.175 598.95 316.14 598.592 322.105 598.233 C 328.07 597.874 334.035 597.513 340 597.284 C 345.965 597.055 351.93 596.959 357.895 597.029 C 363.86 597.1 369.825 597.338 375.789 597.58 C 381.754 597.821 387.719 598.066 393.684 598.205 C 399.649 598.344 405.614 598.377 411.579 598.412 C 417.544 598.447 423.509 598.484 429.474 598.554 C 435.439 598.623 441.404 598.726 447.368 598.665 C 453.333 598.604 459.298 598.38 465.263 597.925 C 471.228 597.47 477.193 596.786 483.158 596.108 C 489.123 595.429 495.088 594.757 501.053 594.272 C 507.018 593.787 512.982 593.488 518.947 593.353 C 524.912 593.219 530.877 593.249 536.842 593.254 C 542.807 593.259 548.772 593.238 554.737 593.24 C 560.702 593.241 566.667 593.264 572.632 593.025 C 578.596 592.786 584.561 592.284 590.526 591.491 C 596.491 590.697 602.456 589.611 608.421 588.744 C 614.386 587.876 620.351 587.228 626.316 586.349 C 632.281 585.47 638.246 584.361 644.211 583.29 C 650.175 582.22 656.14 581.188 662.105 579.414 C 668.07 577.64 674.035 575.124 680 572.934 C 685.965 570.744 691.93 568.88 697.895 567.247 C 703.86 565.613 709.825 564.21 715.789 563.231 C 721.754 562.252 727.719 561.696 733.684 561.5 C 739.649 561.305 745.614 561.469 751.579 561.435 C 757.544 561.402 763.509 561.171 769.474 560.429 C 775.439 559.688 781.404 558.437 787.368 556.669 C 793.333 554.901 799.298 552.615 805.263 550.493 C 811.228 548.371 817.193 546.413 823.158 545.229 C 829.123 544.045 835.088 543.635 841.053 543.939 C 847.018 544.242 852.982 545.259 858.947 546.355 C 864.912 547.451 870.877 548.625 876.842 549.517 C 882.807 550.409 888.772 551.019 894.737 551.356 C 900.702 551.693 906.667 551.758 912.632 551.713 C 918.596 551.667 924.561 551.512 930.526 551.348 C 936.491 551.183 942.456 551.01 948.421 550.851 C 954.386 550.692 960.351 550.547 966.316 550.454 C 972.281 550.361 978.246 550.32 984.211 550.382 C 990.175 550.444 996.14 550.608 1002.11 550.653 C 1008.07 550.698 1014.04 550.624 1020 550.55" /></g><g><path id="textpath-wfn-england-premier-league-n_am_other" style="fill: none; stroke: black;" d="M 0 597.925 C 5.96491 597.969 11.9298 598.013 17.8947 598.109 C 23.8596 598.205 29.8246 598.355 35.7895 598.391 C 41.7544 598.427 47.7193 598.35 53.6842 598.317 C 59.6491 598.285 65.614 598.297 71.5789 598.354 C 77.5439 598.411 83.5088 598.513 89.4737 598.61 C 95.4386 598.706 101.404 598.798 107.368 598.815 C 113.333 598.832 119.298 598.773 125.263 598.626 C 131.228 598.479 137.193 598.244 143.158 597.981 C 149.123 597.717 155.088 597.426 161.053 597.155 C 167.018 596.884 172.982 596.633 178.947 596.46 C 184.912 596.288 190.877 596.192 196.842 596.17 C 202.807 596.147 208.772 596.198 214.737 596.302 C 220.702 596.406 226.667 596.565 232.632 596.753 C 238.596 596.941 244.561 597.159 250.526 597.403 C 256.491 597.647 262.456 597.918 268.421 598.051 C 274.386 598.183 280.351 598.176 286.316 598.057 C 292.281 597.937 298.246 597.705 304.211 597.353 C 310.175 597 316.14 596.528 322.105 596.116 C 328.07 595.703 334.035 595.35 340 595.153 C 345.965 594.957 351.93 594.917 357.895 595.022 C 363.86 595.128 369.825 595.38 375.789 595.604 C 381.754 595.827 387.719 596.022 393.684 596.035 C 399.649 596.048 405.614 595.878 411.579 595.728 C 417.544 595.578 423.509 595.447 429.474 595.462 C 435.439 595.477 441.404 595.637 447.368 595.713 C 453.333 595.788 459.298 595.778 465.263 595.521 C 471.228 595.264 477.193 594.759 483.158 594.174 C 489.123 593.59 495.088 592.927 501.053 592.359 C 507.018 591.792 512.982 591.32 518.947 590.937 C 524.912 590.554 530.877 590.26 536.842 589.932 C 542.807 589.604 548.772 589.242 554.737 588.867 C 560.702 588.491 566.667 588.102 572.632 587.575 C 578.596 587.048 584.561 586.384 590.526 585.247 C 596.491 584.11 602.456 582.499 608.421 581.145 C 614.386 579.792 620.351 578.695 626.316 577.435 C 632.281 576.175 638.246 574.752 644.211 573.504 C 650.175 572.256 656.14 571.184 662.105 569.153 C 668.07 567.122 674.035 564.132 680 561.378 C 685.965 558.623 691.93 556.103 697.895 553.724 C 703.86 551.344 709.825 549.106 715.789 547.533 C 721.754 545.959 727.719 545.051 733.684 544.45 C 739.649 543.85 745.614 543.557 751.579 543.29 C 757.544 543.023 763.509 542.782 769.474 542.024 C 775.439 541.267 781.404 539.993 787.368 537.996 C 793.333 536 799.298 533.28 805.263 530.701 C 811.228 528.122 817.193 525.684 823.158 524.183 C 829.123 522.683 835.088 522.122 841.053 522.502 C 847.018 522.881 852.982 524.203 858.947 525.547 C 864.912 526.892 870.877 528.259 876.842 529.224 C 882.807 530.188 888.772 530.749 894.737 531.125 C 900.702 531.502 906.667 531.694 912.632 531.74 C 918.596 531.786 924.561 531.686 930.526 531.552 C 936.491 531.417 942.456 531.249 948.421 531.194 C 954.386 531.138 960.351 531.195 966.316 531.34 C 972.281 531.486 978.246 531.72 984.211 532.03 C 990.175 532.34 996.14 532.727 1002.11 532.859 C 1008.07 532.992 1014.04 532.87 1020 532.749" /></g><g><path id="textpath-wfn-england-premier-league-af_other" style="fill: none; stroke: black;" d="M 0 595.862 C 5.96491 595.979 11.9298 596.095 17.8947 596.293 C 23.8596 596.49 29.8246 596.768 35.7895 596.867 C 41.7544 596.966 47.7193 596.885 53.6842 596.861 C 59.6491 596.838 65.614 596.872 71.5789 596.979 C 77.5439 597.087 83.5088 597.268 89.4737 597.373 C 95.4386 597.479 101.404 597.508 107.368 597.353 C 113.333 597.197 119.298 596.856 125.263 596.377 C 131.228 595.897 137.193 595.28 143.158 594.693 C 149.123 594.107 155.088 593.552 161.053 593.11 C 167.018 592.669 172.982 592.341 178.947 592.138 C 184.912 591.935 190.877 591.857 196.842 591.89 C 202.807 591.924 208.772 592.069 214.737 592.33 C 220.702 592.591 226.667 592.967 232.632 593.42 C 238.596 593.873 244.561 594.403 250.526 594.909 C 256.491 595.414 262.456 595.896 268.421 596.125 C 274.386 596.354 280.351 596.33 286.316 596.174 C 292.281 596.017 298.246 595.728 304.211 595.367 C 310.175 595.006 316.14 594.572 322.105 594.195 C 328.07 593.818 334.035 593.497 340 593.28 C 345.965 593.063 351.93 592.95 357.895 592.9 C 363.86 592.849 369.825 592.862 375.789 592.803 C 381.754 592.743 387.719 592.61 393.684 592.281 C 399.649 591.952 405.614 591.426 411.579 591.013 C 417.544 590.6 423.509 590.299 429.474 590.271 C 435.439 590.243 441.404 590.489 447.368 590.703 C 453.333 590.918 459.298 591.1 465.263 590.986 C 471.228 590.871 477.193 590.46 483.158 589.99 C 489.123 589.519 495.088 588.99 501.053 588.221 C 507.018 587.452 512.982 586.442 518.947 585.539 C 524.912 584.636 530.877 583.84 536.842 582.896 C 542.807 581.953 548.772 580.862 554.737 579.942 C 560.702 579.021 566.667 578.271 572.632 577.23 C 578.596 576.188 584.561 574.855 590.526 573.192 C 596.491 571.529 602.456 569.536 608.421 567.87 C 614.386 566.204 620.351 564.865 626.316 563.346 C 632.281 561.826 638.246 560.126 644.211 558.438 C 650.175 556.751 656.14 555.077 662.105 552.326 C 668.07 549.576 674.035 545.75 680 542.286 C 685.965 538.822 691.93 535.721 697.895 532.584 C 703.86 529.447 709.825 526.276 715.789 523.657 C 721.754 521.037 727.719 518.971 733.684 517.051 C 739.649 515.132 745.614 513.36 751.579 511.819 C 757.544 510.278 763.509 508.969 769.474 507.166 C 775.439 505.364 781.404 503.067 787.368 499.795 C 793.333 496.523 799.298 492.275 805.263 488.372 C 811.228 484.469 817.193 480.91 823.158 478.615 C 829.123 476.319 835.088 475.286 841.053 475.64 C 847.018 475.993 852.982 477.732 858.947 479.6 C 864.912 481.468 870.877 483.465 876.842 485.238 C 882.807 487.011 888.772 488.561 894.737 490.014 C 900.702 491.467 906.667 492.824 912.632 493.856 C 918.596 494.888 924.561 495.594 930.526 495.883 C 936.491 496.171 942.456 496.041 948.421 495.849 C 954.386 495.657 960.351 495.402 966.316 495.528 C 972.281 495.655 978.246 496.163 984.211 496.757 C 990.175 497.35 996.14 498.028 1002.11 498.513 C 1008.07 498.998 1014.04 499.29 1020 499.582" /></g><g><path id="textpath-wfn-england-premier-league-eu_other" style="fill: none; stroke: black;" d="M 0 592.693 C 5.96491 592.912 11.9298 593.132 17.8947 593.472 C 23.8596 593.812 29.8246 594.273 35.7895 594.467 C 41.7544 594.662 47.7193 594.59 53.6842 594.532 C 59.6491 594.474 65.614 594.429 71.5789 594.475 C 77.5439 594.52 83.5088 594.656 89.4737 594.719 C 95.4386 594.782 101.404 594.771 107.368 594.499 C 113.333 594.228 119.298 593.696 125.263 593.008 C 131.228 592.319 137.193 591.473 143.158 590.772 C 149.123 590.072 155.088 589.517 161.053 589.196 C 167.018 588.875 172.982 588.789 178.947 588.863 C 184.912 588.937 190.877 589.171 196.842 589.478 C 202.807 589.784 208.772 590.163 214.737 590.609 C 220.702 591.055 226.667 591.57 232.632 592.129 C 238.596 592.689 244.561 593.294 250.526 593.879 C 256.491 594.463 262.456 595.028 268.421 595.234 C 274.386 595.44 280.351 595.287 286.316 594.863 C 292.281 594.438 298.246 593.741 304.211 592.884 C 310.175 592.026 316.14 591.007 322.105 590.116 C 328.07 589.224 334.035 588.46 340 587.913 C 345.965 587.366 351.93 587.035 357.895 586.891 C 363.86 586.747 369.825 586.789 375.789 586.545 C 381.754 586.302 387.719 585.772 393.684 585.12 C 399.649 584.467 405.614 583.692 411.579 583.227 C 417.544 582.762 423.509 582.608 429.474 582.985 C 435.439 583.362 441.404 584.27 447.368 584.794 C 453.333 585.318 459.298 585.457 465.263 585.006 C 471.228 584.555 477.193 583.514 483.158 582.17 C 489.123 580.827 495.088 579.181 501.053 577.882 C 507.018 576.583 512.982 575.631 518.947 574.713 C 524.912 573.796 530.877 572.913 536.842 572.052 C 542.807 571.191 548.772 570.352 554.737 569.278 C 560.702 568.205 566.667 566.897 572.632 565.198 C 578.596 563.5 584.561 561.41 590.526 558.881 C 596.491 556.351 602.456 553.381 608.421 550.308 C 614.386 547.236 620.351 544.062 626.316 540.454 C 632.281 536.846 638.246 532.804 644.211 528.666 C 650.175 524.528 656.14 520.294 662.105 515.436 C 668.07 510.577 674.035 505.095 680 499.973 C 685.965 494.85 691.93 490.088 697.895 485.225 C 703.86 480.363 709.825 475.4 715.789 471.02 C 721.754 466.64 727.719 462.843 733.684 459.456 C 739.649 456.068 745.614 453.09 751.579 450.467 C 757.544 447.845 763.509 445.577 769.474 442.709 C 775.439 439.841 781.404 436.373 787.368 431.81 C 793.333 427.247 799.298 421.589 805.263 416.393 C 811.228 411.196 817.193 406.462 823.158 403.095 C 829.123 399.729 835.088 397.73 841.053 397.665 C 847.018 397.6 852.982 399.468 858.947 401.944 C 864.912 404.42 870.877 407.505 876.842 410.766 C 882.807 414.026 888.772 417.463 894.737 420.466 C 900.702 423.469 906.667 426.039 912.632 428.031 C 918.596 430.023 924.561 431.437 930.526 432.273 C 936.491 433.108 942.456 433.366 948.421 433.427 C 954.386 433.488 960.351 433.353 966.316 433.164 C 972.281 432.975 978.246 432.732 984.211 432.067 C 990.175 431.402 996.14 430.314 1002.11 429.593 C 1008.07 428.872 1014.04 428.516 1020 428.161" /></g><g><path id="textpath-wfn-england-premier-league-nor" style="fill: none; stroke: black;" d="M 0 591.344 C 5.96491 591.597 11.9298 591.85 17.8947 592.23 C 23.8596 592.611 29.8246 593.119 35.7895 593.324 C 41.7544 593.529 47.7193 593.43 53.6842 593.32 C 59.6491 593.21 65.614 593.09 71.5789 593.044 C 77.5439 592.999 83.5088 593.027 89.4737 593.006 C 95.4386 592.984 101.404 592.912 107.368 592.55 C 113.333 592.187 119.298 591.534 125.263 590.723 C 131.228 589.913 137.193 588.945 143.158 588.189 C 149.123 587.432 155.088 586.886 161.053 586.64 C 167.018 586.394 172.982 586.447 178.947 586.697 C 184.912 586.947 190.877 587.394 196.842 587.896 C 202.807 588.399 208.772 588.959 214.737 589.557 C 220.702 590.156 226.667 590.794 232.632 591.453 C 238.596 592.112 244.561 592.792 250.526 593.454 C 256.491 594.116 262.456 594.761 268.421 594.957 C 274.386 595.153 280.351 594.9 286.316 594.238 C 292.281 593.576 298.246 592.505 304.211 591.169 C 310.175 589.833 316.14 588.232 322.105 586.82 C 328.07 585.407 334.035 584.183 340 583.327 C 345.965 582.471 351.93 581.983 357.895 581.796 C 363.86 581.608 369.825 581.721 375.789 581.642 C 381.754 581.562 387.719 581.29 393.684 580.919 C 399.649 580.549 405.614 580.079 411.579 579.86 C 417.544 579.641 423.509 579.672 429.474 580.188 C 435.439 580.704 441.404 581.704 447.368 582.265 C 453.333 582.825 459.298 582.946 465.263 582.33 C 471.228 581.714 477.193 580.362 483.158 578.528 C 489.123 576.693 495.088 574.376 501.053 572.35 C 507.018 570.324 512.982 568.588 518.947 566.973 C 524.912 565.357 530.877 563.861 536.842 562.37 C 542.807 560.88 548.772 559.394 554.737 557.669 C 560.702 555.944 566.667 553.978 572.632 551.686 C 578.596 549.394 584.561 546.775 590.526 543.594 C 596.491 540.412 602.456 536.669 608.421 532.14 C 614.386 527.61 620.351 522.296 626.316 516.033 C 632.281 509.77 638.246 502.559 644.211 495.578 C 650.175 488.597 656.14 481.846 662.105 475.316 C 668.07 468.786 674.035 462.478 680 456.808 C 685.965 451.139 691.93 446.109 697.895 440.713 C 703.86 435.317 709.825 429.556 715.789 424.519 C 721.754 419.483 727.719 415.172 733.684 411.589 C 739.649 408.006 745.614 405.151 751.579 402.809 C 757.544 400.466 763.509 398.636 769.474 396.075 C 775.439 393.514 781.404 390.222 787.368 385.643 C 793.333 381.063 799.298 375.195 805.263 369.713 C 811.228 364.23 817.193 359.132 823.158 355.301 C 829.123 351.47 835.088 348.905 841.053 348.576 C 847.018 348.246 852.982 350.151 858.947 353.017 C 864.912 355.884 870.877 359.713 876.842 363.867 C 882.807 368.02 888.772 372.497 894.737 376.242 C 900.702 379.986 906.667 382.998 912.632 385.385 C 918.596 387.771 924.561 389.531 930.526 390.997 C 936.491 392.463 942.456 393.635 948.421 394.603 C 954.386 395.57 960.351 396.334 966.316 396.535 C 972.281 396.736 978.246 396.376 984.211 394.921 C 990.175 393.467 996.14 390.918 1002.11 389.144 C 1008.07 387.37 1014.04 386.371 1020 385.371" /></g><g><path id="textpath-wfn-england-premier-league-nir" style="fill: none; stroke: black;" d="M 0 578.686 C 5.96491 579.093 11.9298 579.5 17.8947 580.122 C 23.8596 580.745 29.8246 581.583 35.7895 582.07 C 41.7544 582.556 47.7193 582.693 53.6842 582.736 C 59.6491 582.78 65.614 582.731 71.5789 582.675 C 77.5439 582.619 83.5088 582.557 89.4737 582.464 C 95.4386 582.371 101.404 582.248 107.368 581.816 C 113.333 581.384 119.298 580.642 125.263 579.811 C 131.228 578.98 137.193 578.06 143.158 577.315 C 149.123 576.571 155.088 576.002 161.053 575.662 C 167.018 575.322 172.982 575.21 178.947 575.346 C 184.912 575.483 190.877 575.868 196.842 576.434 C 202.807 577.001 208.772 577.748 214.737 578.607 C 220.702 579.465 226.667 580.436 232.632 581.281 C 238.596 582.126 244.561 582.845 250.526 583.509 C 256.491 584.172 262.456 584.778 268.421 584.906 C 274.386 585.033 280.351 584.682 286.316 583.978 C 292.281 583.273 298.246 582.214 304.211 580.906 C 310.175 579.599 316.14 578.042 322.105 576.691 C 328.07 575.339 334.035 574.193 340 573.479 C 345.965 572.766 351.93 572.485 357.895 572.484 C 363.86 572.484 369.825 572.764 375.789 572.787 C 381.754 572.81 387.719 572.575 393.684 572.121 C 399.649 571.668 405.614 570.996 411.579 570.582 C 417.544 570.167 423.509 570.011 429.474 570.386 C 435.439 570.761 441.404 571.668 447.368 572.121 C 453.333 572.573 459.298 572.572 465.263 571.814 C 471.228 571.057 477.193 569.543 483.158 567.646 C 489.123 565.749 495.088 563.469 501.053 561.594 C 507.018 559.719 512.982 558.249 518.947 556.832 C 524.912 555.415 530.877 554.051 536.842 552.533 C 542.807 551.015 548.772 549.344 554.737 547.373 C 560.702 545.403 566.667 543.134 572.632 540.485 C 578.596 537.836 584.561 534.808 590.526 531.174 C 596.491 527.539 602.456 523.299 608.421 518.182 C 614.386 513.065 620.351 507.072 626.316 500.206 C 632.281 493.339 638.246 485.599 644.211 478.248 C 650.175 470.897 656.14 463.936 662.105 457.319 C 668.07 450.702 674.035 444.429 680 438.983 C 685.965 433.537 691.93 428.919 697.895 423.942 C 703.86 418.965 709.825 413.63 715.789 409.118 C 721.754 404.605 727.719 400.916 733.684 397.989 C 739.649 395.062 745.614 392.898 751.579 391.219 C 757.544 389.541 763.509 388.348 769.474 386.436 C 775.439 384.523 781.404 381.892 787.368 377.749 C 793.333 373.606 799.298 367.952 805.263 362.616 C 811.228 357.28 817.193 352.262 823.158 348.367 C 829.123 344.473 835.088 341.702 841.053 341.151 C 847.018 340.6 852.982 342.268 858.947 345.009 C 864.912 347.75 870.877 351.565 876.842 355.739 C 882.807 359.913 888.772 364.448 894.737 368.336 C 900.702 372.223 906.667 375.463 912.632 378.027 C 918.596 380.59 924.561 382.478 930.526 384.117 C 936.491 385.756 942.456 387.147 948.421 388.313 C 954.386 389.48 960.351 390.422 966.316 390.791 C 972.281 391.159 978.246 390.955 984.211 389.625 C 990.175 388.294 996.14 385.839 1002.11 384.121 C 1008.07 382.404 1014.04 381.425 1020 380.446" /></g><g><path id="textpath-wfn-england-premier-league-sco" style="fill: none; stroke: black;" d="M 0 525.219 C 5.96491 525.404 11.9298 525.589 17.8947 525.694 C 23.8596 525.799 29.8246 525.824 35.7895 525.41 C 41.7544 524.995 47.7193 524.141 53.6842 523.048 C 59.6491 521.955 65.614 520.624 71.5789 519.39 C 77.5439 518.156 83.5088 517.019 89.4737 516.31 C 95.4386 515.602 101.404 515.321 107.368 515.016 C 113.333 514.712 119.298 514.382 125.263 514.069 C 131.228 513.755 137.193 513.458 143.158 513.219 C 149.123 512.979 155.088 512.797 161.053 512.667 C 167.018 512.537 172.982 512.459 178.947 512.674 C 184.912 512.89 190.877 513.399 196.842 514.405 C 202.807 515.412 208.772 516.916 214.737 518.746 C 220.702 520.576 226.667 522.732 232.632 524.495 C 238.596 526.259 244.561 527.629 250.526 528.431 C 256.491 529.233 262.456 529.466 268.421 529.084 C 274.386 528.701 280.351 527.703 286.316 526.767 C 292.281 525.83 298.246 524.955 304.211 524.151 C 310.175 523.346 316.14 522.612 322.105 522.138 C 328.07 521.665 334.035 521.452 340 521.724 C 345.965 521.996 351.93 522.752 357.895 523.931 C 363.86 525.11 369.825 526.711 375.789 528.11 C 381.754 529.51 387.719 530.708 393.684 531.344 C 399.649 531.979 405.614 532.052 411.579 532.063 C 417.544 532.074 423.509 532.024 429.474 532.542 C 435.439 533.061 441.404 534.15 447.368 534.841 C 453.333 535.533 459.298 535.828 465.263 535.518 C 471.228 535.209 477.193 534.295 483.158 532.97 C 489.123 531.645 495.088 529.909 501.053 528.674 C 507.018 527.439 512.982 526.705 518.947 525.978 C 524.912 525.251 530.877 524.531 536.842 523.436 C 542.807 522.341 548.772 520.873 554.737 519.1 C 560.702 517.327 566.667 515.25 572.632 512.609 C 578.596 509.968 584.561 506.762 590.526 503.037 C 596.491 499.312 602.456 495.068 608.421 489.974 C 614.386 484.88 620.351 478.936 626.316 472.275 C 632.281 465.613 638.246 458.234 644.211 451.286 C 650.175 444.338 656.14 437.82 662.105 431.404 C 668.07 424.988 674.035 418.674 680 413.21 C 685.965 407.747 691.93 403.135 697.895 398.448 C 703.86 393.762 709.825 389.001 715.789 385.193 C 721.754 381.384 727.719 378.527 733.684 376.393 C 739.649 374.258 745.614 372.845 751.579 371.721 C 757.544 370.596 763.509 369.761 769.474 368.242 C 775.439 366.723 781.404 364.52 787.368 360.865 C 793.333 357.209 799.298 352.101 805.263 347.324 C 811.228 342.546 817.193 338.098 823.158 334.643 C 829.123 331.188 835.088 328.724 841.053 328.206 C 847.018 327.688 852.982 329.115 858.947 331.546 C 864.912 333.977 870.877 337.413 876.842 341.246 C 882.807 345.079 888.772 349.309 894.737 353.082 C 900.702 356.855 906.667 360.169 912.632 362.765 C 918.596 365.361 924.561 367.238 930.526 368.905 C 936.491 370.572 942.456 372.029 948.421 373.36 C 954.386 374.69 960.351 375.894 966.316 376.581 C 972.281 377.267 978.246 377.437 984.211 376.475 C 990.175 375.514 996.14 373.421 1002.11 371.936 C 1008.07 370.451 1014.04 369.573 1020 368.695" /></g><g><path id="textpath-wfn-england-premier-league-bel" style="fill: none; stroke: black;" d="M 0 484.41 C 5.96491 484.219 11.9298 484.027 17.8947 483.374 C 23.8596 482.72 29.8246 481.603 35.7895 480.005 C 41.7544 478.406 47.7193 476.326 53.6842 473.944 C 59.6491 471.561 65.614 468.876 71.5789 466.474 C 77.5439 464.072 83.5088 461.952 89.4737 460.699 C 95.4386 459.446 101.404 459.059 107.368 458.951 C 113.333 458.843 119.298 459.013 125.263 459.238 C 131.228 459.463 137.193 459.742 143.158 459.995 C 149.123 460.249 155.088 460.476 161.053 460.65 C 167.018 460.825 172.982 460.946 178.947 461.354 C 184.912 461.761 190.877 462.455 196.842 463.838 C 202.807 465.222 208.772 467.296 214.737 469.837 C 220.702 472.378 226.667 475.387 232.632 477.882 C 238.596 480.378 244.561 482.36 250.526 483.299 C 256.491 484.239 262.456 484.136 268.421 483.313 C 274.386 482.49 280.351 480.947 286.316 479.816 C 292.281 478.685 298.246 477.965 304.211 477.594 C 310.175 477.222 316.14 477.199 322.105 477.437 C 328.07 477.675 334.035 478.175 340 479.143 C 345.965 480.112 351.93 481.549 357.895 483.619 C 363.86 485.689 369.825 488.392 375.789 491.081 C 381.754 493.769 387.719 496.442 393.684 498.37 C 399.649 500.297 405.614 501.48 411.579 502.229 C 417.544 502.977 423.509 503.291 429.474 504.115 C 435.439 504.938 441.404 506.27 447.368 507.263 C 453.333 508.256 459.298 508.911 465.263 509.139 C 471.228 509.367 477.193 509.169 483.158 508.448 C 489.123 507.726 495.088 506.479 501.053 505.669 C 507.018 504.858 512.982 504.482 518.947 504.098 C 524.912 503.713 530.877 503.32 536.842 502.416 C 542.807 501.513 548.772 500.1 554.737 498.436 C 560.702 496.771 566.667 494.854 572.632 492.327 C 578.596 489.8 584.561 486.662 590.526 483.12 C 596.491 479.579 602.456 475.634 608.421 470.785 C 614.386 465.936 620.351 460.183 626.316 453.671 C 632.281 447.159 638.246 439.889 644.211 432.974 C 650.175 426.059 656.14 419.499 662.105 412.911 C 668.07 406.322 674.035 399.705 680 394.034 C 685.965 388.363 691.93 383.639 697.895 379.18 C 703.86 374.722 709.825 370.53 715.789 367.381 C 721.754 364.232 727.719 362.126 733.684 360.626 C 739.649 359.126 745.614 358.232 751.579 357.437 C 757.544 356.641 763.509 355.944 769.474 354.543 C 775.439 353.141 781.404 351.034 787.368 347.619 C 793.333 344.204 799.298 339.48 805.263 335.167 C 811.228 330.853 817.193 326.949 823.158 323.938 C 829.123 320.926 835.088 318.807 841.053 318.292 C 847.018 317.778 852.982 318.868 858.947 320.824 C 864.912 322.78 870.877 325.603 876.842 328.817 C 882.807 332.032 888.772 335.64 894.737 338.897 C 900.702 342.155 906.667 345.062 912.632 347.23 C 918.596 349.398 924.561 350.826 930.526 352.128 C 936.491 353.43 942.456 354.606 948.421 355.74 C 954.386 356.873 960.351 357.964 966.316 358.519 C 972.281 359.074 978.246 359.093 984.211 358.015 C 990.175 356.938 996.14 354.765 1002.11 353.234 C 1008.07 351.702 1014.04 350.811 1020 349.92" /></g><g><path id="textpath-wfn-england-premier-league-irl" style="fill: none; stroke: black;" d="M 0 474.697 C 5.96491 474.856 11.9298 475.015 17.8947 474.947 C 23.8596 474.878 29.8246 474.582 35.7895 473.474 C 41.7544 472.365 47.7193 470.444 53.6842 468.068 C 59.6491 465.692 65.614 462.86 71.5789 460.286 C 77.5439 457.712 83.5088 455.394 89.4737 454.018 C 95.4386 452.641 101.404 452.206 107.368 452.13 C 113.333 452.054 119.298 452.338 125.263 452.705 C 131.228 453.073 137.193 453.525 143.158 453.903 C 149.123 454.28 155.088 454.583 161.053 454.745 C 167.018 454.907 172.982 454.927 178.947 455.147 C 184.912 455.367 190.877 455.786 196.842 456.897 C 202.807 458.009 208.772 459.813 214.737 462.119 C 220.702 464.426 226.667 467.234 232.632 469.505 C 238.596 471.775 244.561 473.507 250.526 474.211 C 256.491 474.915 262.456 474.591 268.421 473.467 C 274.386 472.343 280.351 470.419 286.316 468.807 C 292.281 467.194 298.246 465.893 304.211 464.905 C 310.175 463.917 316.14 463.242 322.105 462.867 C 328.07 462.492 334.035 462.416 340 463.039 C 345.965 463.662 351.93 464.982 357.895 467.029 C 363.86 469.076 369.825 471.849 375.789 474.632 C 381.754 477.415 387.719 480.207 393.684 482.183 C 399.649 484.158 405.614 485.317 411.579 485.916 C 417.544 486.514 423.509 486.552 429.474 487.093 C 435.439 487.633 441.404 488.676 447.368 489.349 C 453.333 490.021 459.298 490.324 465.263 490.243 C 471.228 490.162 477.193 489.698 483.158 488.893 C 489.123 488.088 495.088 486.942 501.053 486.501 C 507.018 486.059 512.982 486.322 518.947 486.561 C 524.912 486.799 530.877 487.013 536.842 486.529 C 542.807 486.045 548.772 484.862 554.737 483.276 C 560.702 481.691 566.667 479.702 572.632 476.995 C 578.596 474.288 584.561 470.863 590.526 466.809 C 596.491 462.755 602.456 458.072 608.421 452.491 C 614.386 446.91 620.351 440.43 626.316 433.48 C 632.281 426.53 638.246 419.11 644.211 412.224 C 650.175 405.338 656.14 398.986 662.105 392.594 C 668.07 386.202 674.035 379.77 680 374.156 C 685.965 368.543 691.93 363.749 697.895 359.266 C 703.86 354.784 709.825 350.612 715.789 347.372 C 721.754 344.132 727.719 341.823 733.684 340.117 C 739.649 338.411 745.614 337.307 751.579 336.409 C 757.544 335.51 763.509 334.817 769.474 333.627 C 775.439 332.438 781.404 330.753 787.368 327.796 C 793.333 324.839 799.298 320.61 805.263 316.749 C 811.228 312.888 817.193 309.394 823.158 306.58 C 829.123 303.765 835.088 301.63 841.053 300.821 C 847.018 300.011 852.982 300.526 858.947 301.837 C 864.912 303.148 870.877 305.253 876.842 307.769 C 882.807 310.284 888.772 313.209 894.737 316.129 C 900.702 319.049 906.667 321.964 912.632 324.263 C 918.596 326.562 924.561 328.246 930.526 329.86 C 936.491 331.474 942.456 333.017 948.421 334.392 C 954.386 335.767 960.351 336.973 966.316 337.519 C 972.281 338.065 978.246 337.951 984.211 336.767 C 990.175 335.584 996.14 333.332 1002.11 331.745 C 1008.07 330.159 1014.04 329.238 1020 328.317" /></g><g><path id="textpath-wfn-england-premier-league-nld" style="fill: none; stroke: black;" d="M 0 464.983 C 5.96491 465.493 11.9298 466.002 17.8947 466.52 C 23.8596 467.037 29.8246 467.561 35.7895 466.943 C 41.7544 466.324 47.7193 464.562 53.6842 462.192 C 59.6491 459.822 65.614 456.845 71.5789 454.098 C 77.5439 451.352 83.5088 448.836 89.4737 447.336 C 95.4386 445.837 101.404 445.353 107.368 445.31 C 113.333 445.266 119.298 445.662 125.263 446.173 C 131.228 446.684 137.193 447.309 143.158 447.81 C 149.123 448.312 155.088 448.691 161.053 448.84 C 167.018 448.989 172.982 448.909 178.947 448.941 C 184.912 448.973 190.877 449.118 196.842 449.957 C 202.807 450.796 208.772 452.329 214.737 454.401 C 220.702 456.473 226.667 459.083 232.632 461.127 C 238.596 463.17 244.561 464.648 250.526 465.123 C 256.491 465.598 262.456 465.07 268.421 463.621 C 274.386 462.172 280.351 459.801 286.316 457.598 C 292.281 455.395 298.246 453.358 304.211 451.624 C 310.175 449.889 316.14 448.456 322.105 447.316 C 328.07 446.175 334.035 445.328 340 445.374 C 345.965 445.42 351.93 446.359 357.895 448.091 C 363.86 449.823 369.825 452.347 375.789 454.976 C 381.754 457.605 387.719 460.34 393.684 462.301 C 399.649 464.262 405.614 465.449 411.579 466.014 C 417.544 466.58 423.509 466.524 429.474 467.053 C 435.439 467.581 441.404 468.695 447.368 469.395 C 453.333 470.095 459.298 470.382 465.263 470.218 C 471.228 470.055 477.193 469.44 483.158 468.563 C 489.123 467.686 495.088 466.547 501.053 466.347 C 507.018 466.146 512.982 466.884 518.947 467.608 C 524.912 468.331 530.877 469.039 536.842 468.89 C 542.807 468.742 548.772 467.736 554.737 466.149 C 560.702 464.562 566.667 462.393 572.632 459.398 C 578.596 456.404 584.561 452.585 590.526 447.855 C 596.491 443.125 602.456 437.483 608.421 430.865 C 614.386 424.246 620.351 416.651 626.316 408.887 C 632.281 401.123 638.246 393.191 644.211 386.051 C 650.175 378.911 656.14 372.562 662.105 366.274 C 668.07 359.986 674.035 353.759 680 348.206 C 685.965 342.653 691.93 337.774 697.895 333.246 C 703.86 328.717 709.825 324.538 715.789 321.184 C 721.754 317.831 727.719 315.302 733.684 313.375 C 739.649 311.447 745.614 310.121 751.579 309.089 C 757.544 308.057 763.509 307.32 769.474 306.285 C 775.439 305.25 781.404 303.919 787.368 301.376 C 793.333 298.834 799.298 295.08 805.263 291.669 C 811.228 288.258 817.193 285.189 823.158 282.661 C 829.123 280.132 835.088 278.144 841.053 277.283 C 847.018 276.422 852.982 276.688 858.947 277.707 C 864.912 278.727 870.877 280.5 876.842 282.768 C 882.807 285.035 888.772 287.797 894.737 290.817 C 900.702 293.837 906.667 297.115 912.632 299.823 C 918.596 302.532 924.561 304.671 930.526 306.687 C 936.491 308.702 942.456 310.595 948.421 312.23 C 954.386 313.866 960.351 315.244 966.316 315.852 C 972.281 316.461 978.246 316.3 984.211 314.954 C 990.175 313.607 996.14 311.075 1002.11 309.277 C 1008.07 307.48 1014.04 306.416 1020 305.353" /></g><g><path id="textpath-wfn-england-premier-league-fra" style="fill: none; stroke: black;" d="M 0 464.983 C 5.96491 465.493 11.9298 466.002 17.8947 466.52 C 23.8596 467.037 29.8246 467.561 35.7895 466.943 C 41.7544 466.324 47.7193 464.562 53.6842 462.192 C 59.6491 459.822 65.614 456.845 71.5789 454.098 C 77.5439 451.352 83.5088 448.836 89.4737 447.336 C 95.4386 445.837 101.404 445.353 107.368 445.31 C 113.333 445.266 119.298 445.662 125.263 446.173 C 131.228 446.684 137.193 447.309 143.158 447.81 C 149.123 448.312 155.088 448.691 161.053 448.84 C 167.018 448.989 172.982 448.909 178.947 448.941 C 184.912 448.973 190.877 449.118 196.842 449.957 C 202.807 450.796 208.772 452.329 214.737 454.401 C 220.702 456.474 226.667 459.085 232.632 461.127 C 238.596 463.169 244.561 464.642 250.526 465.123 C 256.491 465.604 262.456 465.092 268.421 463.621 C 274.386 462.15 280.351 459.719 286.316 457.399 C 292.281 455.078 298.246 452.868 304.211 450.967 C 310.175 449.065 316.14 447.472 322.105 446.121 C 328.07 444.771 334.035 443.663 340 443.42 C 345.965 443.178 351.93 443.8 357.895 445.222 C 363.86 446.644 369.825 448.866 375.789 451.267 C 381.754 453.667 387.719 456.247 393.684 458.174 C 399.649 460.101 405.614 461.374 411.579 462.082 C 417.544 462.79 423.509 462.932 429.474 463.726 C 435.439 464.519 441.404 465.964 447.368 466.996 C 453.333 468.027 459.298 468.646 465.263 468.711 C 471.228 468.777 477.193 468.29 483.158 467.465 C 489.123 466.641 495.088 465.479 501.053 465.186 C 507.018 464.892 512.982 465.466 518.947 466.015 C 524.912 466.563 530.877 467.085 536.842 466.787 C 542.807 466.49 548.772 465.373 554.737 463.661 C 560.702 461.949 566.667 459.643 572.632 456.512 C 578.596 453.382 584.561 449.428 590.526 444.384 C 596.491 439.341 602.456 433.207 608.421 425.866 C 614.386 418.525 620.351 409.975 626.316 401.096 C 632.281 392.216 638.246 383.007 644.211 374.676 C 650.175 366.345 656.14 358.892 662.105 351.81 C 668.07 344.727 674.035 338.014 680 331.913 C 685.965 325.812 691.93 320.324 697.895 315.052 C 703.86 309.78 709.825 304.723 715.789 300.343 C 721.754 295.963 727.719 292.259 733.684 289.303 C 739.649 286.346 745.614 284.137 751.579 282.593 C 757.544 281.048 763.509 280.168 769.474 279.216 C 775.439 278.265 781.404 277.243 787.368 275.223 C 793.333 273.204 799.298 270.187 805.263 267.361 C 811.228 264.535 817.193 261.9 823.158 259.68 C 829.123 257.461 835.088 255.656 841.053 254.956 C 847.018 254.256 852.982 254.66 858.947 255.879 C 864.912 257.098 870.877 259.132 876.842 261.725 C 882.807 264.318 888.772 267.469 894.737 270.632 C 900.702 273.796 906.667 276.972 912.632 279.358 C 918.596 281.744 924.561 283.341 930.526 284.737 C 936.491 286.133 942.456 287.327 948.421 288.428 C 954.386 289.529 960.351 290.536 966.316 290.839 C 972.281 291.142 978.246 290.741 984.211 289.066 C 990.175 287.392 996.14 284.444 1002.11 282.342 C 1008.07 280.239 1014.04 278.98 1020 277.722" /></g><g><path id="textpath-wfn-england-premier-league-esp" style="fill: none; stroke: black;" d="M 0 464.983 C 5.96491 465.493 11.9298 466.002 17.8947 466.52 C 23.8596 467.037 29.8246 467.561 35.7895 466.943 C 41.7544 466.324 47.7193 464.562 53.6842 462.192 C 59.6491 459.822 65.614 456.845 71.5789 454.098 C 77.5439 451.352 83.5088 448.836 89.4737 447.336 C 95.4386 445.837 101.404 445.353 107.368 445.31 C 113.333 445.266 119.298 445.662 125.263 446.173 C 131.228 446.684 137.193 447.309 143.158 447.81 C 149.123 448.312 155.088 448.691 161.053 448.84 C 167.018 448.989 172.982 448.909 178.947 448.941 C 184.912 448.973 190.877 449.118 196.842 449.957 C 202.807 450.796 208.772 452.329 214.737 454.401 C 220.702 456.474 226.667 459.085 232.632 461.127 C 238.596 463.169 244.561 464.642 250.526 465.123 C 256.491 465.604 262.456 465.092 268.421 463.621 C 274.386 462.15 280.351 459.719 286.316 457.399 C 292.281 455.078 298.246 452.868 304.211 450.967 C 310.175 449.065 316.14 447.472 322.105 446.121 C 328.07 444.771 334.035 443.664 340 443.42 C 345.965 443.177 351.93 443.798 357.895 445.222 C 363.86 446.647 369.825 448.875 375.789 451.267 C 381.754 453.658 387.719 456.212 393.684 458.108 C 399.649 460.003 405.614 461.241 411.579 461.927 C 417.544 462.614 423.509 462.751 429.474 463.542 C 435.439 464.333 441.404 465.779 447.368 466.801 C 453.333 467.822 459.298 468.42 465.263 468.442 C 471.228 468.464 477.193 467.91 483.158 467.035 C 489.123 466.161 495.088 464.964 501.053 464.64 C 507.018 464.315 512.982 464.863 518.947 465.384 C 524.912 465.906 530.877 466.401 536.842 466.09 C 542.807 465.779 548.772 464.662 554.737 462.962 C 560.702 461.262 566.667 458.979 572.632 455.886 C 578.596 452.792 584.561 448.888 590.526 443.783 C 596.491 438.678 602.456 432.372 608.421 424.68 C 614.386 416.988 620.351 407.909 626.316 398.276 C 632.281 388.643 638.246 378.455 644.211 369.15 C 650.175 359.844 656.14 351.421 662.105 343.601 C 668.07 335.781 674.035 328.564 680 321.882 C 685.965 315.2 691.93 309.053 697.895 302.925 C 703.86 296.797 709.825 290.688 715.789 285.093 C 721.754 279.499 727.719 274.42 733.684 270.211 C 739.649 266.002 745.614 262.663 751.579 260.278 C 757.544 257.894 763.509 256.464 769.474 255.181 C 775.439 253.898 781.404 252.762 787.368 250.917 C 793.333 249.072 799.298 246.517 805.263 244.118 C 811.228 241.719 817.193 239.476 823.158 237.504 C 829.123 235.533 835.088 233.833 841.053 233.179 C 847.018 232.524 852.982 232.916 858.947 234.136 C 864.912 235.355 870.877 237.403 876.842 239.872 C 882.807 242.342 888.772 245.234 894.737 247.807 C 900.702 250.38 906.667 252.633 912.632 254.015 C 918.596 255.398 924.561 255.909 930.526 256.366 C 936.491 256.824 942.456 257.228 948.421 257.761 C 954.386 258.295 960.351 258.958 966.316 259.002 C 972.281 259.047 978.246 258.474 984.211 256.642 C 990.175 254.811 996.14 251.721 1002.11 249.534 C 1008.07 247.348 1014.04 246.064 1020 244.781" /></g><g><path id="textpath-wfn-england-premier-league-eng" style="fill: none; stroke: black;" d="M 0 255.057 C 5.96491 254.699 11.9298 254.341 17.8947 253.547 C 23.8596 252.753 29.8246 251.522 35.7895 249.866 C 41.7544 248.209 47.7193 246.128 53.6842 244.096 C 59.6491 242.063 65.614 240.081 71.5789 238.413 C 77.5439 236.746 83.5088 235.392 89.4737 234.613 C 95.4386 233.834 101.404 233.628 107.368 233.588 C 113.333 233.547 119.298 233.672 125.263 233.931 C 131.228 234.19 137.193 234.583 143.158 235.081 C 149.123 235.579 155.088 236.183 161.053 236.613 C 167.018 237.043 172.982 237.299 178.947 237.41 C 184.912 237.521 190.877 237.486 196.842 237.692 C 202.807 237.898 208.772 238.344 214.737 239.152 C 220.702 239.959 226.667 241.128 232.632 242.182 C 238.596 243.236 244.561 244.175 250.526 244.671 C 256.491 245.167 262.456 245.219 268.421 244.724 C 274.386 244.23 280.351 243.19 286.316 242.076 C 292.281 240.962 298.246 239.775 304.211 238.573 C 310.175 237.372 316.14 236.156 322.105 235.265 C 328.07 234.373 334.035 233.806 340 234.133 C 345.965 234.46 351.93 235.681 357.895 237.313 C 363.86 238.945 369.825 240.989 375.789 242.551 C 381.754 244.114 387.719 245.196 393.684 245.524 C 399.649 245.851 405.614 245.425 411.579 244.933 C 417.544 244.442 423.509 243.886 429.474 244.259 C 435.439 244.632 441.404 245.934 447.368 246.871 C 453.333 247.808 459.298 248.379 465.263 248.465 C 471.228 248.552 477.193 248.154 483.158 247.615 C 489.123 247.075 495.088 246.395 501.053 246.459 C 507.018 246.523 512.982 247.331 518.947 248.219 C 524.912 249.106 530.877 250.073 536.842 250.378 C 542.807 250.682 548.772 250.325 554.737 249.461 C 560.702 248.597 566.667 247.226 572.632 245.391 C 578.596 243.556 584.561 241.256 590.526 238.165 C 596.491 235.075 602.456 231.193 608.421 226.657 C 614.386 222.12 620.351 216.929 626.316 211.449 C 632.281 205.969 638.246 200.201 644.211 194.931 C 650.175 189.66 656.14 184.887 662.105 180.251 C 668.07 175.615 674.035 171.117 680 166.918 C 685.965 162.719 691.93 158.819 697.895 155.072 C 703.86 151.325 709.825 147.731 715.789 144.593 C 721.754 141.456 727.719 138.775 733.684 136.483 C 739.649 134.19 745.614 132.286 751.579 130.841 C 757.544 129.395 763.509 128.408 769.474 127.32 C 775.439 126.232 781.404 125.043 787.368 123.653 C 793.333 122.263 799.298 120.674 805.263 119.39 C 811.228 118.106 817.193 117.128 823.158 116.407 C 829.123 115.687 835.088 115.222 841.053 115.154 C 847.018 115.086 852.982 115.414 858.947 116.036 C 864.912 116.658 870.877 117.575 876.842 118.762 C 882.807 119.95 888.772 121.409 894.737 122.726 C 900.702 124.044 906.667 125.22 912.632 125.953 C 918.596 126.685 924.561 126.974 930.526 127.121 C 936.491 127.268 942.456 127.273 948.421 127.259 C 954.386 127.246 960.351 127.213 966.316 126.907 C 972.281 126.601 978.246 126.022 984.211 124.847 C 990.175 123.671 996.14 121.899 1002.11 120.717 C 1008.07 119.536 1014.04 118.946 1020 118.355" /></g><g><path id="textpath-wfn-england-premier-league-wal" style="fill: none; stroke: black;" d="M 0 22.5652 C 5.96491 21.9525 11.9298 21.3399 17.8947 20.287 C 23.8596 19.2342 29.8246 17.7412 35.7895 16.3943 C 41.7544 15.0474 47.7193 13.8466 53.6842 12.9994 C 59.6491 12.1523 65.614 11.6588 71.5789 11.3644 C 77.5439 11.0699 83.5088 10.9745 89.4737 10.9448 C 95.4386 10.9151 101.404 10.9512 107.368 10.9328 C 113.333 10.9143 119.298 10.8413 125.263 10.8449 C 131.228 10.8485 137.193 10.9287 143.158 11.1759 C 149.123 11.4231 155.088 11.8371 161.053 12.1925 C 167.018 12.548 172.982 12.8448 178.947 12.9395 C 184.912 13.0343 190.877 12.927 196.842 12.7133 C 202.807 12.4997 208.772 12.1797 214.737 11.9511 C 220.702 11.7225 226.667 11.5854 232.632 11.6183 C 238.596 11.6512 244.561 11.8541 250.526 12.1094 C 256.491 12.3647 262.456 12.6725 268.421 12.9139 C 274.386 13.1553 280.351 13.3304 286.316 13.3769 C 292.281 13.4234 298.246 13.3413 304.211 13.0902 C 310.175 12.8391 316.14 12.419 322.105 12.2043 C 328.07 11.9895 334.035 11.9799 340 12.4228 C 345.965 12.8657 351.93 13.7609 357.895 14.702 C 363.86 15.6431 369.825 16.6302 375.789 16.9178 C 381.754 17.2054 387.719 16.7936 393.684 15.9697 C 399.649 15.1458 405.614 13.9098 411.579 12.9697 C 417.544 12.0297 423.509 11.3857 429.474 11.4877 C 435.439 11.5898 441.404 12.438 447.368 13.0043 C 453.333 13.5706 459.298 13.855 465.263 13.858 C 471.228 13.8609 477.193 13.5824 483.158 13.3046 C 489.123 13.0268 495.088 12.7497 501.053 12.9098 C 507.018 13.0698 512.982 13.667 518.947 14.3112 C 524.912 14.9554 530.877 15.6466 536.842 16.0836 C 542.807 16.5206 548.772 16.7034 554.737 16.6553 C 560.702 16.6072 566.667 16.3283 572.632 16.0359 C 578.596 15.7436 584.561 15.4379 590.526 14.8032 C 596.491 14.1685 602.456 13.2049 608.421 12.3266 C 614.386 11.4483 620.351 10.6552 626.316 9.84234 C 632.281 9.02944 638.246 8.19669 644.211 7.47405 C 650.175 6.7514 656.14 6.13887 662.105 5.22747 C 668.07 4.31606 674.035 3.10579 680 1.93668 C 685.965 0.767558 691.93 -0.360404 697.895 -1.23918 C 703.86 -2.11795 709.825 -2.74753 715.789 -3.08175 C 721.754 -3.41598 727.719 -3.45483 733.684 -3.54079 C 739.649 -3.62674 745.614 -3.75978 751.579 -3.7934 C 757.544 -3.82701 763.509 -3.7612 769.474 -4.00399 C 775.439 -4.24678 781.404 -4.79818 787.368 -5.26022 C 793.333 -5.72226 799.298 -6.09493 805.263 -6.22323 C 811.228 -6.35154 817.193 -6.23548 823.158 -5.88438 C 829.123 -5.53328 835.088 -4.94715 841.053 -4.44969 C 847.018 -3.95223 852.982 -3.54344 858.947 -3.38542 C 864.912 -3.22741 870.877 -3.32018 876.842 -3.24177 C 882.807 -3.16337 888.772 -2.91379 894.737 -2.56358 C 900.702 -2.21336 906.667 -1.76251 912.632 -1.34343 C 918.596 -0.924352 924.561 -0.537044 930.526 -0.338061 C 936.491 -0.139077 942.456 -0.128417 948.421 -0.292278 C 954.386 -0.45614 960.351 -0.794522 966.316 -0.93495 C 972.281 -1.07538 978.246 -1.01785 984.211 -0.961033 C 990.175 -0.904217 996.14 -0.848112 1002.11 -0.694929 C 1008.07 -0.541746 1014.04 -0.291484 1020 -0.0412221" /></g></g></defs></svg>